<?xml version="1.0" encoding="utf-8" standalone="no"?>
<!DOCTYPE svg PUBLIC "-//W3C//DTD SVG 1.1//EN"
  "http://www.w3.org/Graphics/SVG/1.1/DTD/svg11.dtd">
<svg xmlns:xlink="http://www.w3.org/1999/xlink" width="1144.700625pt" height="856.361903pt" viewBox="0 0 1144.700625 856.361903" xmlns="http://www.w3.org/2000/svg" version="1.1">
 <metadata>
  <rdf:RDF xmlns:dc="http://purl.org/dc/elements/1.1/" xmlns:cc="http://creativecommons.org/ns#" xmlns:rdf="http://www.w3.org/1999/02/22-rdf-syntax-ns#">
   <cc:Work>
    <dc:type rdf:resource="http://purl.org/dc/dcmitype/StillImage"/>
    <dc:date>2025-11-29T19:27:16.349494</dc:date>
    <dc:format>image/svg+xml</dc:format>
    <dc:creator>
     <cc:Agent>
      <dc:title>Matplotlib v3.10.7, https://matplotlib.org/</dc:title>
     </cc:Agent>
    </dc:creator>
   </cc:Work>
  </rdf:RDF>
 </metadata>
 <defs>
  <style type="text/css">*{stroke-linejoin: round; stroke-linecap: butt}</style>
 </defs>
 <g id="figure_1">
  <g id="patch_1">
   <path d="M 0 856.361903 
L 1144.700625 856.361903 
L 1144.700625 0 
L 0 0 
z
" style="fill: #ffffff"/>
  </g>
  <g id="axes_1">
   <g id="patch_2">
    <path d="M 36.465625 297.961206 
L 1137.500625 297.961206 
L 1137.500625 22.318125 
L 36.465625 22.318125 
z
" style="fill: #ffffff"/>
   </g>
   <g id="patch_3">
    <path d="M 86.51267 297.961206 
L 140.617584 297.961206 
L 140.617584 35.443986 
L 86.51267 35.443986 
z
" clip-path="url(#p56b7a92bcd)" style="fill: #4682b4; opacity: 0.8"/>
   </g>
   <g id="patch_4">
    <path d="M 154.143813 297.961206 
L 208.248727 297.961206 
L 208.248727 262.195034 
L 154.143813 262.195034 
z
" clip-path="url(#p56b7a92bcd)" style="fill: #4682b4; opacity: 0.8"/>
   </g>
   <g id="patch_5">
    <path d="M 221.774955 297.961206 
L 275.879869 297.961206 
L 275.879869 274.708667 
L 221.774955 274.708667 
z
" clip-path="url(#p56b7a92bcd)" style="fill: #4682b4; opacity: 0.8"/>
   </g>
   <g id="patch_6">
    <path d="M 289.406098 297.961206 
L 343.511012 297.961206 
L 343.511012 276.60769 
L 289.406098 276.60769 
z
" clip-path="url(#p56b7a92bcd)" style="fill: #4682b4; opacity: 0.8"/>
   </g>
   <g id="patch_7">
    <path d="M 357.03724 297.961206 
L 411.142154 297.961206 
L 411.142154 277.929649 
L 357.03724 277.929649 
z
" clip-path="url(#p56b7a92bcd)" style="fill: #4682b4; opacity: 0.8"/>
   </g>
   <g id="patch_8">
    <path d="M 424.668383 297.961206 
L 478.773297 297.961206 
L 478.773297 278.16144 
L 424.668383 278.16144 
z
" clip-path="url(#p56b7a92bcd)" style="fill: #4682b4; opacity: 0.8"/>
   </g>
   <g id="patch_9">
    <path d="M 492.299525 297.961206 
L 546.404439 297.961206 
L 546.404439 278.217486 
L 492.299525 278.217486 
z
" clip-path="url(#p56b7a92bcd)" style="fill: #4682b4; opacity: 0.8"/>
   </g>
   <g id="patch_10">
    <path d="M 559.930668 297.961206 
L 614.035582 297.961206 
L 614.035582 278.283652 
L 559.930668 278.283652 
z
" clip-path="url(#p56b7a92bcd)" style="fill: #4682b4; opacity: 0.8"/>
   </g>
   <g id="patch_11">
    <path d="M 627.561811 297.961206 
L 681.666725 297.961206 
L 681.666725 280.24125 
L 627.561811 280.24125 
z
" clip-path="url(#p56b7a92bcd)" style="fill: #4682b4; opacity: 0.8"/>
   </g>
   <g id="patch_12">
    <path d="M 695.192953 297.961206 
L 749.297867 297.961206 
L 749.297867 280.481789 
L 695.192953 280.481789 
z
" clip-path="url(#p56b7a92bcd)" style="fill: #4682b4; opacity: 0.8"/>
   </g>
   <g id="patch_13">
    <path d="M 762.824096 297.961206 
L 816.92901 297.961206 
L 816.92901 281.20909 
L 762.824096 281.20909 
z
" clip-path="url(#p56b7a92bcd)" style="fill: #4682b4; opacity: 0.8"/>
   </g>
   <g id="patch_14">
    <path d="M 830.455238 297.961206 
L 884.560152 297.961206 
L 884.560152 282.554302 
L 830.455238 282.554302 
z
" clip-path="url(#p56b7a92bcd)" style="fill: #4682b4; opacity: 0.8"/>
   </g>
   <g id="patch_15">
    <path d="M 898.086381 297.961206 
L 952.191295 297.961206 
L 952.191295 282.701174 
L 898.086381 282.701174 
z
" clip-path="url(#p56b7a92bcd)" style="fill: #4682b4; opacity: 0.8"/>
   </g>
   <g id="patch_16">
    <path d="M 965.717523 297.961206 
L 1019.822437 297.961206 
L 1019.822437 283.112838 
L 965.717523 283.112838 
z
" clip-path="url(#p56b7a92bcd)" style="fill: #4682b4; opacity: 0.8"/>
   </g>
   <g id="patch_17">
    <path d="M 1033.348666 297.961206 
L 1087.45358 297.961206 
L 1087.45358 283.141247 
L 1033.348666 283.141247 
z
" clip-path="url(#p56b7a92bcd)" style="fill: #4682b4; opacity: 0.8"/>
   </g>
   <g id="matplotlib.axis_1">
    <g id="xtick_1">
     <g id="line2d_1">
      <defs>
       <path id="m49b78eb8b6" d="M 0 0 
L 0 3.5 
" style="stroke: #000000; stroke-width: 0.8"/>
      </defs>
      <g>
       <use xlink:href="#m49b78eb8b6" x="113.565127" y="297.961206" style="stroke: #000000; stroke-width: 0.8"/>
      </g>
     </g>
     <g id="text_1">
      <!-- FSR_scaled -->
      <g transform="translate(72.307656 349.924359) rotate(-45) scale(0.1 -0.1)">
       <defs>
        <path id="DejaVuSans-46" d="M 628 4666 
L 3309 4666 
L 3309 4134 
L 1259 4134 
L 1259 2759 
L 3109 2759 
L 3109 2228 
L 1259 2228 
L 1259 0 
L 628 0 
L 628 4666 
z
" transform="scale(0.015625)"/>
        <path id="DejaVuSans-53" d="M 3425 4513 
L 3425 3897 
Q 3066 4069 2747 4153 
Q 2428 4238 2131 4238 
Q 1616 4238 1336 4038 
Q 1056 3838 1056 3469 
Q 1056 3159 1242 3001 
Q 1428 2844 1947 2747 
L 2328 2669 
Q 3034 2534 3370 2195 
Q 3706 1856 3706 1288 
Q 3706 609 3251 259 
Q 2797 -91 1919 -91 
Q 1588 -91 1214 -16 
Q 841 59 441 206 
L 441 856 
Q 825 641 1194 531 
Q 1563 422 1919 422 
Q 2459 422 2753 634 
Q 3047 847 3047 1241 
Q 3047 1584 2836 1778 
Q 2625 1972 2144 2069 
L 1759 2144 
Q 1053 2284 737 2584 
Q 422 2884 422 3419 
Q 422 4038 858 4394 
Q 1294 4750 2059 4750 
Q 2388 4750 2728 4690 
Q 3069 4631 3425 4513 
z
" transform="scale(0.015625)"/>
        <path id="DejaVuSans-52" d="M 2841 2188 
Q 3044 2119 3236 1894 
Q 3428 1669 3622 1275 
L 4263 0 
L 3584 0 
L 2988 1197 
Q 2756 1666 2539 1819 
Q 2322 1972 1947 1972 
L 1259 1972 
L 1259 0 
L 628 0 
L 628 4666 
L 2053 4666 
Q 2853 4666 3247 4331 
Q 3641 3997 3641 3322 
Q 3641 2881 3436 2590 
Q 3231 2300 2841 2188 
z
M 1259 4147 
L 1259 2491 
L 2053 2491 
Q 2509 2491 2742 2702 
Q 2975 2913 2975 3322 
Q 2975 3731 2742 3939 
Q 2509 4147 2053 4147 
L 1259 4147 
z
" transform="scale(0.015625)"/>
        <path id="DejaVuSans-5f" d="M 3263 -1063 
L 3263 -1509 
L -63 -1509 
L -63 -1063 
L 3263 -1063 
z
" transform="scale(0.015625)"/>
        <path id="DejaVuSans-73" d="M 2834 3397 
L 2834 2853 
Q 2591 2978 2328 3040 
Q 2066 3103 1784 3103 
Q 1356 3103 1142 2972 
Q 928 2841 928 2578 
Q 928 2378 1081 2264 
Q 1234 2150 1697 2047 
L 1894 2003 
Q 2506 1872 2764 1633 
Q 3022 1394 3022 966 
Q 3022 478 2636 193 
Q 2250 -91 1575 -91 
Q 1294 -91 989 -36 
Q 684 19 347 128 
L 347 722 
Q 666 556 975 473 
Q 1284 391 1588 391 
Q 1994 391 2212 530 
Q 2431 669 2431 922 
Q 2431 1156 2273 1281 
Q 2116 1406 1581 1522 
L 1381 1569 
Q 847 1681 609 1914 
Q 372 2147 372 2553 
Q 372 3047 722 3315 
Q 1072 3584 1716 3584 
Q 2034 3584 2315 3537 
Q 2597 3491 2834 3397 
z
" transform="scale(0.015625)"/>
        <path id="DejaVuSans-63" d="M 3122 3366 
L 3122 2828 
Q 2878 2963 2633 3030 
Q 2388 3097 2138 3097 
Q 1578 3097 1268 2742 
Q 959 2388 959 1747 
Q 959 1106 1268 751 
Q 1578 397 2138 397 
Q 2388 397 2633 464 
Q 2878 531 3122 666 
L 3122 134 
Q 2881 22 2623 -34 
Q 2366 -91 2075 -91 
Q 1284 -91 818 406 
Q 353 903 353 1747 
Q 353 2603 823 3093 
Q 1294 3584 2113 3584 
Q 2378 3584 2631 3529 
Q 2884 3475 3122 3366 
z
" transform="scale(0.015625)"/>
        <path id="DejaVuSans-61" d="M 2194 1759 
Q 1497 1759 1228 1600 
Q 959 1441 959 1056 
Q 959 750 1161 570 
Q 1363 391 1709 391 
Q 2188 391 2477 730 
Q 2766 1069 2766 1631 
L 2766 1759 
L 2194 1759 
z
M 3341 1997 
L 3341 0 
L 2766 0 
L 2766 531 
Q 2569 213 2275 61 
Q 1981 -91 1556 -91 
Q 1019 -91 701 211 
Q 384 513 384 1019 
Q 384 1609 779 1909 
Q 1175 2209 1959 2209 
L 2766 2209 
L 2766 2266 
Q 2766 2663 2505 2880 
Q 2244 3097 1772 3097 
Q 1472 3097 1187 3025 
Q 903 2953 641 2809 
L 641 3341 
Q 956 3463 1253 3523 
Q 1550 3584 1831 3584 
Q 2591 3584 2966 3190 
Q 3341 2797 3341 1997 
z
" transform="scale(0.015625)"/>
        <path id="DejaVuSans-6c" d="M 603 4863 
L 1178 4863 
L 1178 0 
L 603 0 
L 603 4863 
z
" transform="scale(0.015625)"/>
        <path id="DejaVuSans-65" d="M 3597 1894 
L 3597 1613 
L 953 1613 
Q 991 1019 1311 708 
Q 1631 397 2203 397 
Q 2534 397 2845 478 
Q 3156 559 3463 722 
L 3463 178 
Q 3153 47 2828 -22 
Q 2503 -91 2169 -91 
Q 1331 -91 842 396 
Q 353 884 353 1716 
Q 353 2575 817 3079 
Q 1281 3584 2069 3584 
Q 2775 3584 3186 3129 
Q 3597 2675 3597 1894 
z
M 3022 2063 
Q 3016 2534 2758 2815 
Q 2500 3097 2075 3097 
Q 1594 3097 1305 2825 
Q 1016 2553 972 2059 
L 3022 2063 
z
" transform="scale(0.015625)"/>
        <path id="DejaVuSans-64" d="M 2906 2969 
L 2906 4863 
L 3481 4863 
L 3481 0 
L 2906 0 
L 2906 525 
Q 2725 213 2448 61 
Q 2172 -91 1784 -91 
Q 1150 -91 751 415 
Q 353 922 353 1747 
Q 353 2572 751 3078 
Q 1150 3584 1784 3584 
Q 2172 3584 2448 3432 
Q 2725 3281 2906 2969 
z
M 947 1747 
Q 947 1113 1208 752 
Q 1469 391 1925 391 
Q 2381 391 2643 752 
Q 2906 1113 2906 1747 
Q 2906 2381 2643 2742 
Q 2381 3103 1925 3103 
Q 1469 3103 1208 2742 
Q 947 2381 947 1747 
z
" transform="scale(0.015625)"/>
       </defs>
       <use xlink:href="#DejaVuSans-46"/>
       <use xlink:href="#DejaVuSans-53" transform="translate(55.769531 0)"/>
       <use xlink:href="#DejaVuSans-52" transform="translate(119.246094 0)"/>
       <use xlink:href="#DejaVuSans-5f" transform="translate(188.728516 0)"/>
       <use xlink:href="#DejaVuSans-73" transform="translate(238.728516 0)"/>
       <use xlink:href="#DejaVuSans-63" transform="translate(290.828125 0)"/>
       <use xlink:href="#DejaVuSans-61" transform="translate(345.808594 0)"/>
       <use xlink:href="#DejaVuSans-6c" transform="translate(407.087891 0)"/>
       <use xlink:href="#DejaVuSans-65" transform="translate(434.871094 0)"/>
       <use xlink:href="#DejaVuSans-64" transform="translate(496.394531 0)"/>
      </g>
     </g>
    </g>
    <g id="xtick_2">
     <g id="line2d_2">
      <g>
       <use xlink:href="#m49b78eb8b6" x="181.19627" y="297.961206" style="stroke: #000000; stroke-width: 0.8"/>
      </g>
     </g>
     <g id="text_2">
      <!-- music_positive -->
      <g transform="translate(127.352298 362.510859) rotate(-45) scale(0.1 -0.1)">
       <defs>
        <path id="DejaVuSans-6d" d="M 3328 2828 
Q 3544 3216 3844 3400 
Q 4144 3584 4550 3584 
Q 5097 3584 5394 3201 
Q 5691 2819 5691 2113 
L 5691 0 
L 5113 0 
L 5113 2094 
Q 5113 2597 4934 2840 
Q 4756 3084 4391 3084 
Q 3944 3084 3684 2787 
Q 3425 2491 3425 1978 
L 3425 0 
L 2847 0 
L 2847 2094 
Q 2847 2600 2669 2842 
Q 2491 3084 2119 3084 
Q 1678 3084 1418 2786 
Q 1159 2488 1159 1978 
L 1159 0 
L 581 0 
L 581 3500 
L 1159 3500 
L 1159 2956 
Q 1356 3278 1631 3431 
Q 1906 3584 2284 3584 
Q 2666 3584 2933 3390 
Q 3200 3197 3328 2828 
z
" transform="scale(0.015625)"/>
        <path id="DejaVuSans-75" d="M 544 1381 
L 544 3500 
L 1119 3500 
L 1119 1403 
Q 1119 906 1312 657 
Q 1506 409 1894 409 
Q 2359 409 2629 706 
Q 2900 1003 2900 1516 
L 2900 3500 
L 3475 3500 
L 3475 0 
L 2900 0 
L 2900 538 
Q 2691 219 2414 64 
Q 2138 -91 1772 -91 
Q 1169 -91 856 284 
Q 544 659 544 1381 
z
M 1991 3584 
L 1991 3584 
z
" transform="scale(0.015625)"/>
        <path id="DejaVuSans-69" d="M 603 3500 
L 1178 3500 
L 1178 0 
L 603 0 
L 603 3500 
z
M 603 4863 
L 1178 4863 
L 1178 4134 
L 603 4134 
L 603 4863 
z
" transform="scale(0.015625)"/>
        <path id="DejaVuSans-70" d="M 1159 525 
L 1159 -1331 
L 581 -1331 
L 581 3500 
L 1159 3500 
L 1159 2969 
Q 1341 3281 1617 3432 
Q 1894 3584 2278 3584 
Q 2916 3584 3314 3078 
Q 3713 2572 3713 1747 
Q 3713 922 3314 415 
Q 2916 -91 2278 -91 
Q 1894 -91 1617 61 
Q 1341 213 1159 525 
z
M 3116 1747 
Q 3116 2381 2855 2742 
Q 2594 3103 2138 3103 
Q 1681 3103 1420 2742 
Q 1159 2381 1159 1747 
Q 1159 1113 1420 752 
Q 1681 391 2138 391 
Q 2594 391 2855 752 
Q 3116 1113 3116 1747 
z
" transform="scale(0.015625)"/>
        <path id="DejaVuSans-6f" d="M 1959 3097 
Q 1497 3097 1228 2736 
Q 959 2375 959 1747 
Q 959 1119 1226 758 
Q 1494 397 1959 397 
Q 2419 397 2687 759 
Q 2956 1122 2956 1747 
Q 2956 2369 2687 2733 
Q 2419 3097 1959 3097 
z
M 1959 3584 
Q 2709 3584 3137 3096 
Q 3566 2609 3566 1747 
Q 3566 888 3137 398 
Q 2709 -91 1959 -91 
Q 1206 -91 779 398 
Q 353 888 353 1747 
Q 353 2609 779 3096 
Q 1206 3584 1959 3584 
z
" transform="scale(0.015625)"/>
        <path id="DejaVuSans-74" d="M 1172 4494 
L 1172 3500 
L 2356 3500 
L 2356 3053 
L 1172 3053 
L 1172 1153 
Q 1172 725 1289 603 
Q 1406 481 1766 481 
L 2356 481 
L 2356 0 
L 1766 0 
Q 1100 0 847 248 
Q 594 497 594 1153 
L 594 3053 
L 172 3053 
L 172 3500 
L 594 3500 
L 594 4494 
L 1172 4494 
z
" transform="scale(0.015625)"/>
        <path id="DejaVuSans-76" d="M 191 3500 
L 800 3500 
L 1894 563 
L 2988 3500 
L 3597 3500 
L 2284 0 
L 1503 0 
L 191 3500 
z
" transform="scale(0.015625)"/>
       </defs>
       <use xlink:href="#DejaVuSans-6d"/>
       <use xlink:href="#DejaVuSans-75" transform="translate(97.412109 0)"/>
       <use xlink:href="#DejaVuSans-73" transform="translate(160.791016 0)"/>
       <use xlink:href="#DejaVuSans-69" transform="translate(212.890625 0)"/>
       <use xlink:href="#DejaVuSans-63" transform="translate(240.673828 0)"/>
       <use xlink:href="#DejaVuSans-5f" transform="translate(295.654297 0)"/>
       <use xlink:href="#DejaVuSans-70" transform="translate(345.654297 0)"/>
       <use xlink:href="#DejaVuSans-6f" transform="translate(409.130859 0)"/>
       <use xlink:href="#DejaVuSans-73" transform="translate(470.3125 0)"/>
       <use xlink:href="#DejaVuSans-69" transform="translate(522.412109 0)"/>
       <use xlink:href="#DejaVuSans-74" transform="translate(550.195312 0)"/>
       <use xlink:href="#DejaVuSans-69" transform="translate(589.404297 0)"/>
       <use xlink:href="#DejaVuSans-76" transform="translate(617.1875 0)"/>
       <use xlink:href="#DejaVuSans-65" transform="translate(676.367188 0)"/>
      </g>
     </g>
    </g>
    <g id="xtick_3">
     <g id="line2d_3">
      <g>
       <use xlink:href="#m49b78eb8b6" x="248.827412" y="297.961206" style="stroke: #000000; stroke-width: 0.8"/>
      </g>
     </g>
     <g id="text_3">
      <!-- word_count -->
      <g transform="translate(206.293835 351.200466) rotate(-45) scale(0.1 -0.1)">
       <defs>
        <path id="DejaVuSans-77" d="M 269 3500 
L 844 3500 
L 1563 769 
L 2278 3500 
L 2956 3500 
L 3675 769 
L 4391 3500 
L 4966 3500 
L 4050 0 
L 3372 0 
L 2619 2869 
L 1863 0 
L 1184 0 
L 269 3500 
z
" transform="scale(0.015625)"/>
        <path id="DejaVuSans-72" d="M 2631 2963 
Q 2534 3019 2420 3045 
Q 2306 3072 2169 3072 
Q 1681 3072 1420 2755 
Q 1159 2438 1159 1844 
L 1159 0 
L 581 0 
L 581 3500 
L 1159 3500 
L 1159 2956 
Q 1341 3275 1631 3429 
Q 1922 3584 2338 3584 
Q 2397 3584 2469 3576 
Q 2541 3569 2628 3553 
L 2631 2963 
z
" transform="scale(0.015625)"/>
        <path id="DejaVuSans-6e" d="M 3513 2113 
L 3513 0 
L 2938 0 
L 2938 2094 
Q 2938 2591 2744 2837 
Q 2550 3084 2163 3084 
Q 1697 3084 1428 2787 
Q 1159 2491 1159 1978 
L 1159 0 
L 581 0 
L 581 3500 
L 1159 3500 
L 1159 2956 
Q 1366 3272 1645 3428 
Q 1925 3584 2291 3584 
Q 2894 3584 3203 3211 
Q 3513 2838 3513 2113 
z
" transform="scale(0.015625)"/>
       </defs>
       <use xlink:href="#DejaVuSans-77"/>
       <use xlink:href="#DejaVuSans-6f" transform="translate(81.787109 0)"/>
       <use xlink:href="#DejaVuSans-72" transform="translate(142.96875 0)"/>
       <use xlink:href="#DejaVuSans-64" transform="translate(182.332031 0)"/>
       <use xlink:href="#DejaVuSans-5f" transform="translate(245.808594 0)"/>
       <use xlink:href="#DejaVuSans-63" transform="translate(295.808594 0)"/>
       <use xlink:href="#DejaVuSans-6f" transform="translate(350.789062 0)"/>
       <use xlink:href="#DejaVuSans-75" transform="translate(411.970703 0)"/>
       <use xlink:href="#DejaVuSans-6e" transform="translate(475.349609 0)"/>
       <use xlink:href="#DejaVuSans-74" transform="translate(538.728516 0)"/>
      </g>
     </g>
    </g>
    <g id="xtick_4">
     <g id="line2d_4">
      <g>
       <use xlink:href="#m49b78eb8b6" x="316.458555" y="297.961206" style="stroke: #000000; stroke-width: 0.8"/>
      </g>
     </g>
     <g id="text_4">
      <!-- char_count -->
      <g transform="translate(275.697164 349.428279) rotate(-45) scale(0.1 -0.1)">
       <defs>
        <path id="DejaVuSans-68" d="M 3513 2113 
L 3513 0 
L 2938 0 
L 2938 2094 
Q 2938 2591 2744 2837 
Q 2550 3084 2163 3084 
Q 1697 3084 1428 2787 
Q 1159 2491 1159 1978 
L 1159 0 
L 581 0 
L 581 4863 
L 1159 4863 
L 1159 2956 
Q 1366 3272 1645 3428 
Q 1925 3584 2291 3584 
Q 2894 3584 3203 3211 
Q 3513 2838 3513 2113 
z
" transform="scale(0.015625)"/>
       </defs>
       <use xlink:href="#DejaVuSans-63"/>
       <use xlink:href="#DejaVuSans-68" transform="translate(54.980469 0)"/>
       <use xlink:href="#DejaVuSans-61" transform="translate(118.359375 0)"/>
       <use xlink:href="#DejaVuSans-72" transform="translate(179.638672 0)"/>
       <use xlink:href="#DejaVuSans-5f" transform="translate(220.751953 0)"/>
       <use xlink:href="#DejaVuSans-63" transform="translate(270.751953 0)"/>
       <use xlink:href="#DejaVuSans-6f" transform="translate(325.732422 0)"/>
       <use xlink:href="#DejaVuSans-75" transform="translate(386.914062 0)"/>
       <use xlink:href="#DejaVuSans-6e" transform="translate(450.292969 0)"/>
       <use xlink:href="#DejaVuSans-74" transform="translate(513.671875 0)"/>
      </g>
     </g>
    </g>
    <g id="xtick_5">
     <g id="line2d_5">
      <g>
       <use xlink:href="#m49b78eb8b6" x="384.089697" y="297.961206" style="stroke: #000000; stroke-width: 0.8"/>
      </g>
     </g>
     <g id="text_5">
      <!-- avg_PE_scaled -->
      <g transform="translate(330.903114 361.853471) rotate(-45) scale(0.1 -0.1)">
       <defs>
        <path id="DejaVuSans-67" d="M 2906 1791 
Q 2906 2416 2648 2759 
Q 2391 3103 1925 3103 
Q 1463 3103 1205 2759 
Q 947 2416 947 1791 
Q 947 1169 1205 825 
Q 1463 481 1925 481 
Q 2391 481 2648 825 
Q 2906 1169 2906 1791 
z
M 3481 434 
Q 3481 -459 3084 -895 
Q 2688 -1331 1869 -1331 
Q 1566 -1331 1297 -1286 
Q 1028 -1241 775 -1147 
L 775 -588 
Q 1028 -725 1275 -790 
Q 1522 -856 1778 -856 
Q 2344 -856 2625 -561 
Q 2906 -266 2906 331 
L 2906 616 
Q 2728 306 2450 153 
Q 2172 0 1784 0 
Q 1141 0 747 490 
Q 353 981 353 1791 
Q 353 2603 747 3093 
Q 1141 3584 1784 3584 
Q 2172 3584 2450 3431 
Q 2728 3278 2906 2969 
L 2906 3500 
L 3481 3500 
L 3481 434 
z
" transform="scale(0.015625)"/>
        <path id="DejaVuSans-50" d="M 1259 4147 
L 1259 2394 
L 2053 2394 
Q 2494 2394 2734 2622 
Q 2975 2850 2975 3272 
Q 2975 3691 2734 3919 
Q 2494 4147 2053 4147 
L 1259 4147 
z
M 628 4666 
L 2053 4666 
Q 2838 4666 3239 4311 
Q 3641 3956 3641 3272 
Q 3641 2581 3239 2228 
Q 2838 1875 2053 1875 
L 1259 1875 
L 1259 0 
L 628 0 
L 628 4666 
z
" transform="scale(0.015625)"/>
        <path id="DejaVuSans-45" d="M 628 4666 
L 3578 4666 
L 3578 4134 
L 1259 4134 
L 1259 2753 
L 3481 2753 
L 3481 2222 
L 1259 2222 
L 1259 531 
L 3634 531 
L 3634 0 
L 628 0 
L 628 4666 
z
" transform="scale(0.015625)"/>
       </defs>
       <use xlink:href="#DejaVuSans-61"/>
       <use xlink:href="#DejaVuSans-76" transform="translate(61.279297 0)"/>
       <use xlink:href="#DejaVuSans-67" transform="translate(120.458984 0)"/>
       <use xlink:href="#DejaVuSans-5f" transform="translate(183.935547 0)"/>
       <use xlink:href="#DejaVuSans-50" transform="translate(233.935547 0)"/>
       <use xlink:href="#DejaVuSans-45" transform="translate(294.238281 0)"/>
       <use xlink:href="#DejaVuSans-5f" transform="translate(357.421875 0)"/>
       <use xlink:href="#DejaVuSans-73" transform="translate(407.421875 0)"/>
       <use xlink:href="#DejaVuSans-63" transform="translate(459.521484 0)"/>
       <use xlink:href="#DejaVuSans-61" transform="translate(514.501953 0)"/>
       <use xlink:href="#DejaVuSans-6c" transform="translate(575.78125 0)"/>
       <use xlink:href="#DejaVuSans-65" transform="translate(603.564453 0)"/>
       <use xlink:href="#DejaVuSans-64" transform="translate(665.087891 0)"/>
      </g>
     </g>
    </g>
    <g id="xtick_6">
     <g id="line2d_6">
      <g>
       <use xlink:href="#m49b78eb8b6" x="451.72084" y="297.961206" style="stroke: #000000; stroke-width: 0.8"/>
      </g>
     </g>
     <g id="text_6">
      <!-- positive_word_count -->
      <g transform="translate(377.915465 382.472263) rotate(-45) scale(0.1 -0.1)">
       <use xlink:href="#DejaVuSans-70"/>
       <use xlink:href="#DejaVuSans-6f" transform="translate(63.476562 0)"/>
       <use xlink:href="#DejaVuSans-73" transform="translate(124.658203 0)"/>
       <use xlink:href="#DejaVuSans-69" transform="translate(176.757812 0)"/>
       <use xlink:href="#DejaVuSans-74" transform="translate(204.541016 0)"/>
       <use xlink:href="#DejaVuSans-69" transform="translate(243.75 0)"/>
       <use xlink:href="#DejaVuSans-76" transform="translate(271.533203 0)"/>
       <use xlink:href="#DejaVuSans-65" transform="translate(330.712891 0)"/>
       <use xlink:href="#DejaVuSans-5f" transform="translate(392.236328 0)"/>
       <use xlink:href="#DejaVuSans-77" transform="translate(442.236328 0)"/>
       <use xlink:href="#DejaVuSans-6f" transform="translate(524.023438 0)"/>
       <use xlink:href="#DejaVuSans-72" transform="translate(585.205078 0)"/>
       <use xlink:href="#DejaVuSans-64" transform="translate(624.568359 0)"/>
       <use xlink:href="#DejaVuSans-5f" transform="translate(688.044922 0)"/>
       <use xlink:href="#DejaVuSans-63" transform="translate(738.044922 0)"/>
       <use xlink:href="#DejaVuSans-6f" transform="translate(793.025391 0)"/>
       <use xlink:href="#DejaVuSans-75" transform="translate(854.207031 0)"/>
       <use xlink:href="#DejaVuSans-6e" transform="translate(917.585938 0)"/>
       <use xlink:href="#DejaVuSans-74" transform="translate(980.964844 0)"/>
      </g>
     </g>
    </g>
    <g id="xtick_7">
     <g id="line2d_7">
      <g>
       <use xlink:href="#m49b78eb8b6" x="519.351982" y="297.961206" style="stroke: #000000; stroke-width: 0.8"/>
      </g>
     </g>
     <g id="text_7">
      <!-- sports_positive -->
      <g transform="translate(464.551207 363.467663) rotate(-45) scale(0.1 -0.1)">
       <use xlink:href="#DejaVuSans-73"/>
       <use xlink:href="#DejaVuSans-70" transform="translate(52.099609 0)"/>
       <use xlink:href="#DejaVuSans-6f" transform="translate(115.576172 0)"/>
       <use xlink:href="#DejaVuSans-72" transform="translate(176.757812 0)"/>
       <use xlink:href="#DejaVuSans-74" transform="translate(217.871094 0)"/>
       <use xlink:href="#DejaVuSans-73" transform="translate(257.080078 0)"/>
       <use xlink:href="#DejaVuSans-5f" transform="translate(309.179688 0)"/>
       <use xlink:href="#DejaVuSans-70" transform="translate(359.179688 0)"/>
       <use xlink:href="#DejaVuSans-6f" transform="translate(422.65625 0)"/>
       <use xlink:href="#DejaVuSans-73" transform="translate(483.837891 0)"/>
       <use xlink:href="#DejaVuSans-69" transform="translate(535.9375 0)"/>
       <use xlink:href="#DejaVuSans-74" transform="translate(563.720703 0)"/>
       <use xlink:href="#DejaVuSans-69" transform="translate(602.929688 0)"/>
       <use xlink:href="#DejaVuSans-76" transform="translate(630.712891 0)"/>
       <use xlink:href="#DejaVuSans-65" transform="translate(689.892578 0)"/>
      </g>
     </g>
    </g>
    <g id="xtick_8">
     <g id="line2d_8">
      <g>
       <use xlink:href="#m49b78eb8b6" x="586.983125" y="297.961206" style="stroke: #000000; stroke-width: 0.8"/>
      </g>
     </g>
     <g id="text_8">
      <!-- personality_inference_negative -->
      <g transform="translate(474.755335 420.894678) rotate(-45) scale(0.1 -0.1)">
       <defs>
        <path id="DejaVuSans-79" d="M 2059 -325 
Q 1816 -950 1584 -1140 
Q 1353 -1331 966 -1331 
L 506 -1331 
L 506 -850 
L 844 -850 
Q 1081 -850 1212 -737 
Q 1344 -625 1503 -206 
L 1606 56 
L 191 3500 
L 800 3500 
L 1894 763 
L 2988 3500 
L 3597 3500 
L 2059 -325 
z
" transform="scale(0.015625)"/>
        <path id="DejaVuSans-66" d="M 2375 4863 
L 2375 4384 
L 1825 4384 
Q 1516 4384 1395 4259 
Q 1275 4134 1275 3809 
L 1275 3500 
L 2222 3500 
L 2222 3053 
L 1275 3053 
L 1275 0 
L 697 0 
L 697 3053 
L 147 3053 
L 147 3500 
L 697 3500 
L 697 3744 
Q 697 4328 969 4595 
Q 1241 4863 1831 4863 
L 2375 4863 
z
" transform="scale(0.015625)"/>
       </defs>
       <use xlink:href="#DejaVuSans-70"/>
       <use xlink:href="#DejaVuSans-65" transform="translate(63.476562 0)"/>
       <use xlink:href="#DejaVuSans-72" transform="translate(125 0)"/>
       <use xlink:href="#DejaVuSans-73" transform="translate(166.113281 0)"/>
       <use xlink:href="#DejaVuSans-6f" transform="translate(218.212891 0)"/>
       <use xlink:href="#DejaVuSans-6e" transform="translate(279.394531 0)"/>
       <use xlink:href="#DejaVuSans-61" transform="translate(342.773438 0)"/>
       <use xlink:href="#DejaVuSans-6c" transform="translate(404.052734 0)"/>
       <use xlink:href="#DejaVuSans-69" transform="translate(431.835938 0)"/>
       <use xlink:href="#DejaVuSans-74" transform="translate(459.619141 0)"/>
       <use xlink:href="#DejaVuSans-79" transform="translate(498.828125 0)"/>
       <use xlink:href="#DejaVuSans-5f" transform="translate(558.007812 0)"/>
       <use xlink:href="#DejaVuSans-69" transform="translate(608.007812 0)"/>
       <use xlink:href="#DejaVuSans-6e" transform="translate(635.791016 0)"/>
       <use xlink:href="#DejaVuSans-66" transform="translate(699.169922 0)"/>
       <use xlink:href="#DejaVuSans-65" transform="translate(734.375 0)"/>
       <use xlink:href="#DejaVuSans-72" transform="translate(795.898438 0)"/>
       <use xlink:href="#DejaVuSans-65" transform="translate(834.761719 0)"/>
       <use xlink:href="#DejaVuSans-6e" transform="translate(896.285156 0)"/>
       <use xlink:href="#DejaVuSans-63" transform="translate(959.664062 0)"/>
       <use xlink:href="#DejaVuSans-65" transform="translate(1014.644531 0)"/>
       <use xlink:href="#DejaVuSans-5f" transform="translate(1076.167969 0)"/>
       <use xlink:href="#DejaVuSans-6e" transform="translate(1126.167969 0)"/>
       <use xlink:href="#DejaVuSans-65" transform="translate(1189.546875 0)"/>
       <use xlink:href="#DejaVuSans-67" transform="translate(1251.070312 0)"/>
       <use xlink:href="#DejaVuSans-61" transform="translate(1314.546875 0)"/>
       <use xlink:href="#DejaVuSans-74" transform="translate(1375.826172 0)"/>
       <use xlink:href="#DejaVuSans-69" transform="translate(1415.035156 0)"/>
       <use xlink:href="#DejaVuSans-76" transform="translate(1442.818359 0)"/>
       <use xlink:href="#DejaVuSans-65" transform="translate(1501.998047 0)"/>
      </g>
     </g>
    </g>
    <g id="xtick_9">
     <g id="line2d_9">
      <g>
       <use xlink:href="#m49b78eb8b6" x="654.614268" y="297.961206" style="stroke: #000000; stroke-width: 0.8"/>
      </g>
     </g>
     <g id="text_9">
      <!-- music_neutral -->
      <g transform="translate(603.216443 360.064712) rotate(-45) scale(0.1 -0.1)">
       <use xlink:href="#DejaVuSans-6d"/>
       <use xlink:href="#DejaVuSans-75" transform="translate(97.412109 0)"/>
       <use xlink:href="#DejaVuSans-73" transform="translate(160.791016 0)"/>
       <use xlink:href="#DejaVuSans-69" transform="translate(212.890625 0)"/>
       <use xlink:href="#DejaVuSans-63" transform="translate(240.673828 0)"/>
       <use xlink:href="#DejaVuSans-5f" transform="translate(295.654297 0)"/>
       <use xlink:href="#DejaVuSans-6e" transform="translate(345.654297 0)"/>
       <use xlink:href="#DejaVuSans-65" transform="translate(409.033203 0)"/>
       <use xlink:href="#DejaVuSans-75" transform="translate(470.556641 0)"/>
       <use xlink:href="#DejaVuSans-74" transform="translate(533.935547 0)"/>
       <use xlink:href="#DejaVuSans-72" transform="translate(573.144531 0)"/>
       <use xlink:href="#DejaVuSans-61" transform="translate(614.257812 0)"/>
       <use xlink:href="#DejaVuSans-6c" transform="translate(675.537109 0)"/>
      </g>
     </g>
    </g>
    <g id="xtick_10">
     <g id="line2d_10">
      <g>
       <use xlink:href="#m49b78eb8b6" x="722.24541" y="297.961206" style="stroke: #000000; stroke-width: 0.8"/>
      </g>
     </g>
     <g id="text_10">
      <!-- arts_and_crafts_neutral -->
      <g transform="translate(637.732891 393.179406) rotate(-45) scale(0.1 -0.1)">
       <use xlink:href="#DejaVuSans-61"/>
       <use xlink:href="#DejaVuSans-72" transform="translate(61.279297 0)"/>
       <use xlink:href="#DejaVuSans-74" transform="translate(102.392578 0)"/>
       <use xlink:href="#DejaVuSans-73" transform="translate(141.601562 0)"/>
       <use xlink:href="#DejaVuSans-5f" transform="translate(193.701172 0)"/>
       <use xlink:href="#DejaVuSans-61" transform="translate(243.701172 0)"/>
       <use xlink:href="#DejaVuSans-6e" transform="translate(304.980469 0)"/>
       <use xlink:href="#DejaVuSans-64" transform="translate(368.359375 0)"/>
       <use xlink:href="#DejaVuSans-5f" transform="translate(431.835938 0)"/>
       <use xlink:href="#DejaVuSans-63" transform="translate(481.835938 0)"/>
       <use xlink:href="#DejaVuSans-72" transform="translate(536.816406 0)"/>
       <use xlink:href="#DejaVuSans-61" transform="translate(577.929688 0)"/>
       <use xlink:href="#DejaVuSans-66" transform="translate(639.208984 0)"/>
       <use xlink:href="#DejaVuSans-74" transform="translate(672.664062 0)"/>
       <use xlink:href="#DejaVuSans-73" transform="translate(711.873047 0)"/>
       <use xlink:href="#DejaVuSans-5f" transform="translate(763.972656 0)"/>
       <use xlink:href="#DejaVuSans-6e" transform="translate(813.972656 0)"/>
       <use xlink:href="#DejaVuSans-65" transform="translate(877.351562 0)"/>
       <use xlink:href="#DejaVuSans-75" transform="translate(938.875 0)"/>
       <use xlink:href="#DejaVuSans-74" transform="translate(1002.253906 0)"/>
       <use xlink:href="#DejaVuSans-72" transform="translate(1041.462891 0)"/>
       <use xlink:href="#DejaVuSans-61" transform="translate(1082.576172 0)"/>
       <use xlink:href="#DejaVuSans-6c" transform="translate(1143.855469 0)"/>
      </g>
     </g>
    </g>
    <g id="xtick_11">
     <g id="line2d_11">
      <g>
       <use xlink:href="#m49b78eb8b6" x="789.876553" y="297.961206" style="stroke: #000000; stroke-width: 0.8"/>
      </g>
     </g>
     <g id="text_11">
      <!-- shortness_score -->
      <g transform="translate(731.307119 367.236322) rotate(-45) scale(0.1 -0.1)">
       <use xlink:href="#DejaVuSans-73"/>
       <use xlink:href="#DejaVuSans-68" transform="translate(52.099609 0)"/>
       <use xlink:href="#DejaVuSans-6f" transform="translate(115.478516 0)"/>
       <use xlink:href="#DejaVuSans-72" transform="translate(176.660156 0)"/>
       <use xlink:href="#DejaVuSans-74" transform="translate(217.773438 0)"/>
       <use xlink:href="#DejaVuSans-6e" transform="translate(256.982422 0)"/>
       <use xlink:href="#DejaVuSans-65" transform="translate(320.361328 0)"/>
       <use xlink:href="#DejaVuSans-73" transform="translate(381.884766 0)"/>
       <use xlink:href="#DejaVuSans-73" transform="translate(433.984375 0)"/>
       <use xlink:href="#DejaVuSans-5f" transform="translate(486.083984 0)"/>
       <use xlink:href="#DejaVuSans-73" transform="translate(536.083984 0)"/>
       <use xlink:href="#DejaVuSans-63" transform="translate(588.183594 0)"/>
       <use xlink:href="#DejaVuSans-6f" transform="translate(643.164062 0)"/>
       <use xlink:href="#DejaVuSans-72" transform="translate(704.345703 0)"/>
       <use xlink:href="#DejaVuSans-65" transform="translate(743.208984 0)"/>
      </g>
     </g>
    </g>
    <g id="xtick_12">
     <g id="line2d_12">
      <g>
       <use xlink:href="#m49b78eb8b6" x="857.507695" y="297.961206" style="stroke: #000000; stroke-width: 0.8"/>
      </g>
     </g>
     <g id="text_12">
      <!-- flesch_reading_ease -->
      <g transform="translate(784.337611 381.836972) rotate(-45) scale(0.1 -0.1)">
       <use xlink:href="#DejaVuSans-66"/>
       <use xlink:href="#DejaVuSans-6c" transform="translate(35.205078 0)"/>
       <use xlink:href="#DejaVuSans-65" transform="translate(62.988281 0)"/>
       <use xlink:href="#DejaVuSans-73" transform="translate(124.511719 0)"/>
       <use xlink:href="#DejaVuSans-63" transform="translate(176.611328 0)"/>
       <use xlink:href="#DejaVuSans-68" transform="translate(231.591797 0)"/>
       <use xlink:href="#DejaVuSans-5f" transform="translate(294.970703 0)"/>
       <use xlink:href="#DejaVuSans-72" transform="translate(344.970703 0)"/>
       <use xlink:href="#DejaVuSans-65" transform="translate(383.833984 0)"/>
       <use xlink:href="#DejaVuSans-61" transform="translate(445.357422 0)"/>
       <use xlink:href="#DejaVuSans-64" transform="translate(506.636719 0)"/>
       <use xlink:href="#DejaVuSans-69" transform="translate(570.113281 0)"/>
       <use xlink:href="#DejaVuSans-6e" transform="translate(597.896484 0)"/>
       <use xlink:href="#DejaVuSans-67" transform="translate(661.275391 0)"/>
       <use xlink:href="#DejaVuSans-5f" transform="translate(724.751953 0)"/>
       <use xlink:href="#DejaVuSans-65" transform="translate(774.751953 0)"/>
       <use xlink:href="#DejaVuSans-61" transform="translate(836.275391 0)"/>
       <use xlink:href="#DejaVuSans-73" transform="translate(897.554688 0)"/>
       <use xlink:href="#DejaVuSans-65" transform="translate(949.654297 0)"/>
      </g>
     </g>
    </g>
    <g id="xtick_13">
     <g id="line2d_13">
      <g>
       <use xlink:href="#m49b78eb8b6" x="925.138838" y="297.961206" style="stroke: #000000; stroke-width: 0.8"/>
      </g>
     </g>
     <g id="text_13">
      <!-- food_positive -->
      <g transform="translate(876.568336 357.23739) rotate(-45) scale(0.1 -0.1)">
       <use xlink:href="#DejaVuSans-66"/>
       <use xlink:href="#DejaVuSans-6f" transform="translate(35.205078 0)"/>
       <use xlink:href="#DejaVuSans-6f" transform="translate(96.386719 0)"/>
       <use xlink:href="#DejaVuSans-64" transform="translate(157.568359 0)"/>
       <use xlink:href="#DejaVuSans-5f" transform="translate(221.044922 0)"/>
       <use xlink:href="#DejaVuSans-70" transform="translate(271.044922 0)"/>
       <use xlink:href="#DejaVuSans-6f" transform="translate(334.521484 0)"/>
       <use xlink:href="#DejaVuSans-73" transform="translate(395.703125 0)"/>
       <use xlink:href="#DejaVuSans-69" transform="translate(447.802734 0)"/>
       <use xlink:href="#DejaVuSans-74" transform="translate(475.585938 0)"/>
       <use xlink:href="#DejaVuSans-69" transform="translate(514.794922 0)"/>
       <use xlink:href="#DejaVuSans-76" transform="translate(542.578125 0)"/>
       <use xlink:href="#DejaVuSans-65" transform="translate(601.757812 0)"/>
      </g>
     </g>
    </g>
    <g id="xtick_14">
     <g id="line2d_14">
      <g>
       <use xlink:href="#m49b78eb8b6" x="992.76998" y="297.961206" style="stroke: #000000; stroke-width: 0.8"/>
      </g>
     </g>
     <g id="text_14">
      <!-- sentiment_subjectivity -->
      <g transform="translate(911.122349 390.314519) rotate(-45) scale(0.1 -0.1)">
       <defs>
        <path id="DejaVuSans-62" d="M 3116 1747 
Q 3116 2381 2855 2742 
Q 2594 3103 2138 3103 
Q 1681 3103 1420 2742 
Q 1159 2381 1159 1747 
Q 1159 1113 1420 752 
Q 1681 391 2138 391 
Q 2594 391 2855 752 
Q 3116 1113 3116 1747 
z
M 1159 2969 
Q 1341 3281 1617 3432 
Q 1894 3584 2278 3584 
Q 2916 3584 3314 3078 
Q 3713 2572 3713 1747 
Q 3713 922 3314 415 
Q 2916 -91 2278 -91 
Q 1894 -91 1617 61 
Q 1341 213 1159 525 
L 1159 0 
L 581 0 
L 581 4863 
L 1159 4863 
L 1159 2969 
z
" transform="scale(0.015625)"/>
        <path id="DejaVuSans-6a" d="M 603 3500 
L 1178 3500 
L 1178 -63 
Q 1178 -731 923 -1031 
Q 669 -1331 103 -1331 
L -116 -1331 
L -116 -844 
L 38 -844 
Q 366 -844 484 -692 
Q 603 -541 603 -63 
L 603 3500 
z
M 603 4863 
L 1178 4863 
L 1178 4134 
L 603 4134 
L 603 4863 
z
" transform="scale(0.015625)"/>
       </defs>
       <use xlink:href="#DejaVuSans-73"/>
       <use xlink:href="#DejaVuSans-65" transform="translate(52.099609 0)"/>
       <use xlink:href="#DejaVuSans-6e" transform="translate(113.623047 0)"/>
       <use xlink:href="#DejaVuSans-74" transform="translate(177.001953 0)"/>
       <use xlink:href="#DejaVuSans-69" transform="translate(216.210938 0)"/>
       <use xlink:href="#DejaVuSans-6d" transform="translate(243.994141 0)"/>
       <use xlink:href="#DejaVuSans-65" transform="translate(341.40625 0)"/>
       <use xlink:href="#DejaVuSans-6e" transform="translate(402.929688 0)"/>
       <use xlink:href="#DejaVuSans-74" transform="translate(466.308594 0)"/>
       <use xlink:href="#DejaVuSans-5f" transform="translate(505.517578 0)"/>
       <use xlink:href="#DejaVuSans-73" transform="translate(555.517578 0)"/>
       <use xlink:href="#DejaVuSans-75" transform="translate(607.617188 0)"/>
       <use xlink:href="#DejaVuSans-62" transform="translate(670.996094 0)"/>
       <use xlink:href="#DejaVuSans-6a" transform="translate(734.472656 0)"/>
       <use xlink:href="#DejaVuSans-65" transform="translate(762.255859 0)"/>
       <use xlink:href="#DejaVuSans-63" transform="translate(823.779297 0)"/>
       <use xlink:href="#DejaVuSans-74" transform="translate(878.759766 0)"/>
       <use xlink:href="#DejaVuSans-69" transform="translate(917.96875 0)"/>
       <use xlink:href="#DejaVuSans-76" transform="translate(945.751953 0)"/>
       <use xlink:href="#DejaVuSans-69" transform="translate(1004.931641 0)"/>
       <use xlink:href="#DejaVuSans-74" transform="translate(1032.714844 0)"/>
       <use xlink:href="#DejaVuSans-79" transform="translate(1071.923828 0)"/>
      </g>
     </g>
    </g>
    <g id="xtick_15">
     <g id="line2d_15">
      <g>
       <use xlink:href="#m49b78eb8b6" x="1060.401123" y="297.961206" style="stroke: #000000; stroke-width: 0.8"/>
      </g>
     </g>
     <g id="text_15">
      <!-- arts_and_crafts_mentioned -->
      <g transform="translate(963.074503 405.993507) rotate(-45) scale(0.1 -0.1)">
       <use xlink:href="#DejaVuSans-61"/>
       <use xlink:href="#DejaVuSans-72" transform="translate(61.279297 0)"/>
       <use xlink:href="#DejaVuSans-74" transform="translate(102.392578 0)"/>
       <use xlink:href="#DejaVuSans-73" transform="translate(141.601562 0)"/>
       <use xlink:href="#DejaVuSans-5f" transform="translate(193.701172 0)"/>
       <use xlink:href="#DejaVuSans-61" transform="translate(243.701172 0)"/>
       <use xlink:href="#DejaVuSans-6e" transform="translate(304.980469 0)"/>
       <use xlink:href="#DejaVuSans-64" transform="translate(368.359375 0)"/>
       <use xlink:href="#DejaVuSans-5f" transform="translate(431.835938 0)"/>
       <use xlink:href="#DejaVuSans-63" transform="translate(481.835938 0)"/>
       <use xlink:href="#DejaVuSans-72" transform="translate(536.816406 0)"/>
       <use xlink:href="#DejaVuSans-61" transform="translate(577.929688 0)"/>
       <use xlink:href="#DejaVuSans-66" transform="translate(639.208984 0)"/>
       <use xlink:href="#DejaVuSans-74" transform="translate(672.664062 0)"/>
       <use xlink:href="#DejaVuSans-73" transform="translate(711.873047 0)"/>
       <use xlink:href="#DejaVuSans-5f" transform="translate(763.972656 0)"/>
       <use xlink:href="#DejaVuSans-6d" transform="translate(813.972656 0)"/>
       <use xlink:href="#DejaVuSans-65" transform="translate(911.384766 0)"/>
       <use xlink:href="#DejaVuSans-6e" transform="translate(972.908203 0)"/>
       <use xlink:href="#DejaVuSans-74" transform="translate(1036.287109 0)"/>
       <use xlink:href="#DejaVuSans-69" transform="translate(1075.496094 0)"/>
       <use xlink:href="#DejaVuSans-6f" transform="translate(1103.279297 0)"/>
       <use xlink:href="#DejaVuSans-6e" transform="translate(1164.460938 0)"/>
       <use xlink:href="#DejaVuSans-65" transform="translate(1227.839844 0)"/>
       <use xlink:href="#DejaVuSans-64" transform="translate(1289.363281 0)"/>
      </g>
     </g>
    </g>
   </g>
   <g id="matplotlib.axis_2">
    <g id="ytick_1">
     <g id="line2d_16">
      <defs>
       <path id="m14c3f271f1" d="M 0 0 
L -3.5 0 
" style="stroke: #000000; stroke-width: 0.8"/>
      </defs>
      <g>
       <use xlink:href="#m14c3f271f1" x="36.465625" y="297.961206" style="stroke: #000000; stroke-width: 0.8"/>
      </g>
     </g>
     <g id="text_16">
      <!-- 0.00 -->
      <g transform="translate(7.2 301.760425) scale(0.1 -0.1)">
       <defs>
        <path id="DejaVuSans-30" d="M 2034 4250 
Q 1547 4250 1301 3770 
Q 1056 3291 1056 2328 
Q 1056 1369 1301 889 
Q 1547 409 2034 409 
Q 2525 409 2770 889 
Q 3016 1369 3016 2328 
Q 3016 3291 2770 3770 
Q 2525 4250 2034 4250 
z
M 2034 4750 
Q 2819 4750 3233 4129 
Q 3647 3509 3647 2328 
Q 3647 1150 3233 529 
Q 2819 -91 2034 -91 
Q 1250 -91 836 529 
Q 422 1150 422 2328 
Q 422 3509 836 4129 
Q 1250 4750 2034 4750 
z
" transform="scale(0.015625)"/>
        <path id="DejaVuSans-2e" d="M 684 794 
L 1344 794 
L 1344 0 
L 684 0 
L 684 794 
z
" transform="scale(0.015625)"/>
       </defs>
       <use xlink:href="#DejaVuSans-30"/>
       <use xlink:href="#DejaVuSans-2e" transform="translate(63.623047 0)"/>
       <use xlink:href="#DejaVuSans-30" transform="translate(95.410156 0)"/>
       <use xlink:href="#DejaVuSans-30" transform="translate(159.033203 0)"/>
      </g>
     </g>
    </g>
    <g id="ytick_2">
     <g id="line2d_17">
      <g>
       <use xlink:href="#m14c3f271f1" x="36.465625" y="255.877702" style="stroke: #000000; stroke-width: 0.8"/>
      </g>
     </g>
     <g id="text_17">
      <!-- 0.05 -->
      <g transform="translate(7.2 259.67692) scale(0.1 -0.1)">
       <defs>
        <path id="DejaVuSans-35" d="M 691 4666 
L 3169 4666 
L 3169 4134 
L 1269 4134 
L 1269 2991 
Q 1406 3038 1543 3061 
Q 1681 3084 1819 3084 
Q 2600 3084 3056 2656 
Q 3513 2228 3513 1497 
Q 3513 744 3044 326 
Q 2575 -91 1722 -91 
Q 1428 -91 1123 -41 
Q 819 9 494 109 
L 494 744 
Q 775 591 1075 516 
Q 1375 441 1709 441 
Q 2250 441 2565 725 
Q 2881 1009 2881 1497 
Q 2881 1984 2565 2268 
Q 2250 2553 1709 2553 
Q 1456 2553 1204 2497 
Q 953 2441 691 2322 
L 691 4666 
z
" transform="scale(0.015625)"/>
       </defs>
       <use xlink:href="#DejaVuSans-30"/>
       <use xlink:href="#DejaVuSans-2e" transform="translate(63.623047 0)"/>
       <use xlink:href="#DejaVuSans-30" transform="translate(95.410156 0)"/>
       <use xlink:href="#DejaVuSans-35" transform="translate(159.033203 0)"/>
      </g>
     </g>
    </g>
    <g id="ytick_3">
     <g id="line2d_18">
      <g>
       <use xlink:href="#m14c3f271f1" x="36.465625" y="213.794197" style="stroke: #000000; stroke-width: 0.8"/>
      </g>
     </g>
     <g id="text_18">
      <!-- 0.10 -->
      <g transform="translate(7.2 217.593416) scale(0.1 -0.1)">
       <defs>
        <path id="DejaVuSans-31" d="M 794 531 
L 1825 531 
L 1825 4091 
L 703 3866 
L 703 4441 
L 1819 4666 
L 2450 4666 
L 2450 531 
L 3481 531 
L 3481 0 
L 794 0 
L 794 531 
z
" transform="scale(0.015625)"/>
       </defs>
       <use xlink:href="#DejaVuSans-30"/>
       <use xlink:href="#DejaVuSans-2e" transform="translate(63.623047 0)"/>
       <use xlink:href="#DejaVuSans-31" transform="translate(95.410156 0)"/>
       <use xlink:href="#DejaVuSans-30" transform="translate(159.033203 0)"/>
      </g>
     </g>
    </g>
    <g id="ytick_4">
     <g id="line2d_19">
      <g>
       <use xlink:href="#m14c3f271f1" x="36.465625" y="171.710692" style="stroke: #000000; stroke-width: 0.8"/>
      </g>
     </g>
     <g id="text_19">
      <!-- 0.15 -->
      <g transform="translate(7.2 175.509911) scale(0.1 -0.1)">
       <use xlink:href="#DejaVuSans-30"/>
       <use xlink:href="#DejaVuSans-2e" transform="translate(63.623047 0)"/>
       <use xlink:href="#DejaVuSans-31" transform="translate(95.410156 0)"/>
       <use xlink:href="#DejaVuSans-35" transform="translate(159.033203 0)"/>
      </g>
     </g>
    </g>
    <g id="ytick_5">
     <g id="line2d_20">
      <g>
       <use xlink:href="#m14c3f271f1" x="36.465625" y="129.627187" style="stroke: #000000; stroke-width: 0.8"/>
      </g>
     </g>
     <g id="text_20">
      <!-- 0.20 -->
      <g transform="translate(7.2 133.426406) scale(0.1 -0.1)">
       <defs>
        <path id="DejaVuSans-32" d="M 1228 531 
L 3431 531 
L 3431 0 
L 469 0 
L 469 531 
Q 828 903 1448 1529 
Q 2069 2156 2228 2338 
Q 2531 2678 2651 2914 
Q 2772 3150 2772 3378 
Q 2772 3750 2511 3984 
Q 2250 4219 1831 4219 
Q 1534 4219 1204 4116 
Q 875 4013 500 3803 
L 500 4441 
Q 881 4594 1212 4672 
Q 1544 4750 1819 4750 
Q 2544 4750 2975 4387 
Q 3406 4025 3406 3419 
Q 3406 3131 3298 2873 
Q 3191 2616 2906 2266 
Q 2828 2175 2409 1742 
Q 1991 1309 1228 531 
z
" transform="scale(0.015625)"/>
       </defs>
       <use xlink:href="#DejaVuSans-30"/>
       <use xlink:href="#DejaVuSans-2e" transform="translate(63.623047 0)"/>
       <use xlink:href="#DejaVuSans-32" transform="translate(95.410156 0)"/>
       <use xlink:href="#DejaVuSans-30" transform="translate(159.033203 0)"/>
      </g>
     </g>
    </g>
    <g id="ytick_6">
     <g id="line2d_21">
      <g>
       <use xlink:href="#m14c3f271f1" x="36.465625" y="87.543682" style="stroke: #000000; stroke-width: 0.8"/>
      </g>
     </g>
     <g id="text_21">
      <!-- 0.25 -->
      <g transform="translate(7.2 91.342901) scale(0.1 -0.1)">
       <use xlink:href="#DejaVuSans-30"/>
       <use xlink:href="#DejaVuSans-2e" transform="translate(63.623047 0)"/>
       <use xlink:href="#DejaVuSans-32" transform="translate(95.410156 0)"/>
       <use xlink:href="#DejaVuSans-35" transform="translate(159.033203 0)"/>
      </g>
     </g>
    </g>
    <g id="ytick_7">
     <g id="line2d_22">
      <g>
       <use xlink:href="#m14c3f271f1" x="36.465625" y="45.460178" style="stroke: #000000; stroke-width: 0.8"/>
      </g>
     </g>
     <g id="text_22">
      <!-- 0.30 -->
      <g transform="translate(7.2 49.259396) scale(0.1 -0.1)">
       <defs>
        <path id="DejaVuSans-33" d="M 2597 2516 
Q 3050 2419 3304 2112 
Q 3559 1806 3559 1356 
Q 3559 666 3084 287 
Q 2609 -91 1734 -91 
Q 1441 -91 1130 -33 
Q 819 25 488 141 
L 488 750 
Q 750 597 1062 519 
Q 1375 441 1716 441 
Q 2309 441 2620 675 
Q 2931 909 2931 1356 
Q 2931 1769 2642 2001 
Q 2353 2234 1838 2234 
L 1294 2234 
L 1294 2753 
L 1863 2753 
Q 2328 2753 2575 2939 
Q 2822 3125 2822 3475 
Q 2822 3834 2567 4026 
Q 2313 4219 1838 4219 
Q 1578 4219 1281 4162 
Q 984 4106 628 3988 
L 628 4550 
Q 988 4650 1302 4700 
Q 1616 4750 1894 4750 
Q 2613 4750 3031 4423 
Q 3450 4097 3450 3541 
Q 3450 3153 3228 2886 
Q 3006 2619 2597 2516 
z
" transform="scale(0.015625)"/>
       </defs>
       <use xlink:href="#DejaVuSans-30"/>
       <use xlink:href="#DejaVuSans-2e" transform="translate(63.623047 0)"/>
       <use xlink:href="#DejaVuSans-33" transform="translate(95.410156 0)"/>
       <use xlink:href="#DejaVuSans-30" transform="translate(159.033203 0)"/>
      </g>
     </g>
    </g>
   </g>
   <g id="patch_18">
    <path d="M 36.465625 297.961206 
L 36.465625 22.318125 
" style="fill: none; stroke: #000000; stroke-width: 0.8; stroke-linejoin: miter; stroke-linecap: square"/>
   </g>
   <g id="patch_19">
    <path d="M 1137.500625 297.961206 
L 1137.500625 22.318125 
" style="fill: none; stroke: #000000; stroke-width: 0.8; stroke-linejoin: miter; stroke-linecap: square"/>
   </g>
   <g id="patch_20">
    <path d="M 36.465625 297.961206 
L 1137.500625 297.961206 
" style="fill: none; stroke: #000000; stroke-width: 0.8; stroke-linejoin: miter; stroke-linecap: square"/>
   </g>
   <g id="patch_21">
    <path d="M 36.465625 22.318125 
L 1137.500625 22.318125 
" style="fill: none; stroke: #000000; stroke-width: 0.8; stroke-linejoin: miter; stroke-linecap: square"/>
   </g>
   <g id="text_23">
    <!-- Top Features – Importance (V2) -->
    <g transform="translate(493.449687 16.318125) scale(0.12 -0.12)">
     <defs>
      <path id="DejaVuSans-54" d="M -19 4666 
L 3928 4666 
L 3928 4134 
L 2272 4134 
L 2272 0 
L 1638 0 
L 1638 4134 
L -19 4134 
L -19 4666 
z
" transform="scale(0.015625)"/>
      <path id="DejaVuSans-20" transform="scale(0.015625)"/>
      <path id="DejaVuSans-2013" d="M 313 1978 
L 2888 1978 
L 2888 1528 
L 313 1528 
L 313 1978 
z
" transform="scale(0.015625)"/>
      <path id="DejaVuSans-49" d="M 628 4666 
L 1259 4666 
L 1259 0 
L 628 0 
L 628 4666 
z
" transform="scale(0.015625)"/>
      <path id="DejaVuSans-28" d="M 1984 4856 
Q 1566 4138 1362 3434 
Q 1159 2731 1159 2009 
Q 1159 1288 1364 580 
Q 1569 -128 1984 -844 
L 1484 -844 
Q 1016 -109 783 600 
Q 550 1309 550 2009 
Q 550 2706 781 3412 
Q 1013 4119 1484 4856 
L 1984 4856 
z
" transform="scale(0.015625)"/>
      <path id="DejaVuSans-56" d="M 1831 0 
L 50 4666 
L 709 4666 
L 2188 738 
L 3669 4666 
L 4325 4666 
L 2547 0 
L 1831 0 
z
" transform="scale(0.015625)"/>
      <path id="DejaVuSans-29" d="M 513 4856 
L 1013 4856 
Q 1481 4119 1714 3412 
Q 1947 2706 1947 2009 
Q 1947 1309 1714 600 
Q 1481 -109 1013 -844 
L 513 -844 
Q 928 -128 1133 580 
Q 1338 1288 1338 2009 
Q 1338 2731 1133 3434 
Q 928 4138 513 4856 
z
" transform="scale(0.015625)"/>
     </defs>
     <use xlink:href="#DejaVuSans-54"/>
     <use xlink:href="#DejaVuSans-6f" transform="translate(44.083984 0)"/>
     <use xlink:href="#DejaVuSans-70" transform="translate(105.265625 0)"/>
     <use xlink:href="#DejaVuSans-20" transform="translate(168.742188 0)"/>
     <use xlink:href="#DejaVuSans-46" transform="translate(200.529297 0)"/>
     <use xlink:href="#DejaVuSans-65" transform="translate(252.548828 0)"/>
     <use xlink:href="#DejaVuSans-61" transform="translate(314.072266 0)"/>
     <use xlink:href="#DejaVuSans-74" transform="translate(375.351562 0)"/>
     <use xlink:href="#DejaVuSans-75" transform="translate(414.560547 0)"/>
     <use xlink:href="#DejaVuSans-72" transform="translate(477.939453 0)"/>
     <use xlink:href="#DejaVuSans-65" transform="translate(516.802734 0)"/>
     <use xlink:href="#DejaVuSans-73" transform="translate(578.326172 0)"/>
     <use xlink:href="#DejaVuSans-20" transform="translate(630.425781 0)"/>
     <use xlink:href="#DejaVuSans-2013" transform="translate(662.212891 0)"/>
     <use xlink:href="#DejaVuSans-20" transform="translate(712.212891 0)"/>
     <use xlink:href="#DejaVuSans-49" transform="translate(744 0)"/>
     <use xlink:href="#DejaVuSans-6d" transform="translate(773.492188 0)"/>
     <use xlink:href="#DejaVuSans-70" transform="translate(870.904297 0)"/>
     <use xlink:href="#DejaVuSans-6f" transform="translate(934.380859 0)"/>
     <use xlink:href="#DejaVuSans-72" transform="translate(995.5625 0)"/>
     <use xlink:href="#DejaVuSans-74" transform="translate(1036.675781 0)"/>
     <use xlink:href="#DejaVuSans-61" transform="translate(1075.884766 0)"/>
     <use xlink:href="#DejaVuSans-6e" transform="translate(1137.164062 0)"/>
     <use xlink:href="#DejaVuSans-63" transform="translate(1200.542969 0)"/>
     <use xlink:href="#DejaVuSans-65" transform="translate(1255.523438 0)"/>
     <use xlink:href="#DejaVuSans-20" transform="translate(1317.046875 0)"/>
     <use xlink:href="#DejaVuSans-28" transform="translate(1348.833984 0)"/>
     <use xlink:href="#DejaVuSans-56" transform="translate(1387.847656 0)"/>
     <use xlink:href="#DejaVuSans-32" transform="translate(1456.255859 0)"/>
     <use xlink:href="#DejaVuSans-29" transform="translate(1519.878906 0)"/>
    </g>
   </g>
  </g>
  <g id="axes_2">
   <g id="patch_22">
    <path d="M 36.465625 724.561206 
L 1137.500625 724.561206 
L 1137.500625 448.918125 
L 36.465625 448.918125 
z
" style="fill: #ffffff"/>
   </g>
   <g id="patch_23">
    <path d="M 86.51267 724.561206 
L 110.344597 724.561206 
L 110.344597 724.561206 
L 86.51267 724.561206 
z
" clip-path="url(#pee9075e8d4)" style="fill: #add8e6; opacity: 0.7"/>
   </g>
   <g id="patch_24">
    <path d="M 154.603889 724.561206 
L 178.435815 724.561206 
L 178.435815 657.294342 
L 154.603889 657.294342 
z
" clip-path="url(#pee9075e8d4)" style="fill: #add8e6; opacity: 0.7"/>
   </g>
   <g id="patch_25">
    <path d="M 222.695107 724.561206 
L 246.527033 724.561206 
L 246.527033 724.561206 
L 222.695107 724.561206 
z
" clip-path="url(#pee9075e8d4)" style="fill: #add8e6; opacity: 0.7"/>
   </g>
   <g id="patch_26">
    <path d="M 290.786325 724.561206 
L 314.618252 724.561206 
L 314.618252 724.561206 
L 290.786325 724.561206 
z
" clip-path="url(#pee9075e8d4)" style="fill: #add8e6; opacity: 0.7"/>
   </g>
   <g id="patch_27">
    <path d="M 358.877544 724.561206 
L 382.70947 724.561206 
L 382.70947 724.561206 
L 358.877544 724.561206 
z
" clip-path="url(#pee9075e8d4)" style="fill: #add8e6; opacity: 0.7"/>
   </g>
   <g id="patch_28">
    <path d="M 426.968762 724.561206 
L 450.800688 724.561206 
L 450.800688 724.561206 
L 426.968762 724.561206 
z
" clip-path="url(#pee9075e8d4)" style="fill: #add8e6; opacity: 0.7"/>
   </g>
   <g id="patch_29">
    <path d="M 495.05998 724.561206 
L 518.891907 724.561206 
L 518.891907 674.842219 
L 495.05998 674.842219 
z
" clip-path="url(#pee9075e8d4)" style="fill: #add8e6; opacity: 0.7"/>
   </g>
   <g id="patch_30">
    <path d="M 563.151199 724.561206 
L 586.983125 724.561206 
L 586.983125 700.746229 
L 563.151199 700.746229 
z
" clip-path="url(#pee9075e8d4)" style="fill: #add8e6; opacity: 0.7"/>
   </g>
   <g id="patch_31">
    <path d="M 631.242417 724.561206 
L 655.074343 724.561206 
L 655.074343 499.781249 
L 631.242417 499.781249 
z
" clip-path="url(#pee9075e8d4)" style="fill: #add8e6; opacity: 0.7"/>
   </g>
   <g id="patch_32">
    <path d="M 699.333635 724.561206 
L 723.165562 724.561206 
L 723.165562 479.726531 
L 699.333635 479.726531 
z
" clip-path="url(#pee9075e8d4)" style="fill: #add8e6; opacity: 0.7"/>
   </g>
   <g id="patch_33">
    <path d="M 767.424854 724.561206 
L 791.25678 724.561206 
L 791.25678 724.561206 
L 767.424854 724.561206 
z
" clip-path="url(#pee9075e8d4)" style="fill: #add8e6; opacity: 0.7"/>
   </g>
   <g id="patch_34">
    <path d="M 835.516072 724.561206 
L 859.347998 724.561206 
L 859.347998 724.561206 
L 835.516072 724.561206 
z
" clip-path="url(#pee9075e8d4)" style="fill: #add8e6; opacity: 0.7"/>
   </g>
   <g id="patch_35">
    <path d="M 903.60729 724.561206 
L 927.439217 724.561206 
L 927.439217 623.869813 
L 903.60729 623.869813 
z
" clip-path="url(#pee9075e8d4)" style="fill: #add8e6; opacity: 0.7"/>
   </g>
   <g id="patch_36">
    <path d="M 971.698508 724.561206 
L 995.530435 724.561206 
L 995.530435 724.561206 
L 971.698508 724.561206 
z
" clip-path="url(#pee9075e8d4)" style="fill: #add8e6; opacity: 0.7"/>
   </g>
   <g id="patch_37">
    <path d="M 1039.789727 724.561206 
L 1063.621653 724.561206 
L 1063.621653 658.129955 
L 1039.789727 658.129955 
z
" clip-path="url(#pee9075e8d4)" style="fill: #add8e6; opacity: 0.7"/>
   </g>
   <g id="patch_38">
    <path d="M 110.344597 724.561206 
L 134.176523 724.561206 
L 134.176523 724.561206 
L 110.344597 724.561206 
z
" clip-path="url(#pee9075e8d4)" style="fill: #f08080; opacity: 0.7"/>
   </g>
   <g id="patch_39">
    <path d="M 178.435815 724.561206 
L 202.267742 724.561206 
L 202.267742 671.667765 
L 178.435815 671.667765 
z
" clip-path="url(#pee9075e8d4)" style="fill: #f08080; opacity: 0.7"/>
   </g>
   <g id="patch_40">
    <path d="M 246.527033 724.561206 
L 270.35896 724.561206 
L 270.35896 724.561206 
L 246.527033 724.561206 
z
" clip-path="url(#pee9075e8d4)" style="fill: #f08080; opacity: 0.7"/>
   </g>
   <g id="patch_41">
    <path d="M 314.618252 724.561206 
L 338.450178 724.561206 
L 338.450178 724.561206 
L 314.618252 724.561206 
z
" clip-path="url(#pee9075e8d4)" style="fill: #f08080; opacity: 0.7"/>
   </g>
   <g id="patch_42">
    <path d="M 382.70947 724.561206 
L 406.541396 724.561206 
L 406.541396 724.561206 
L 382.70947 724.561206 
z
" clip-path="url(#pee9075e8d4)" style="fill: #f08080; opacity: 0.7"/>
   </g>
   <g id="patch_43">
    <path d="M 450.800688 724.561206 
L 474.632615 724.561206 
L 474.632615 724.561206 
L 450.800688 724.561206 
z
" clip-path="url(#pee9075e8d4)" style="fill: #f08080; opacity: 0.7"/>
   </g>
   <g id="patch_44">
    <path d="M 518.891907 724.561206 
L 542.723833 724.561206 
L 542.723833 678.248976 
L 518.891907 678.248976 
z
" clip-path="url(#pee9075e8d4)" style="fill: #f08080; opacity: 0.7"/>
   </g>
   <g id="patch_45">
    <path d="M 586.983125 724.561206 
L 610.815051 724.561206 
L 610.815051 704.573823 
L 586.983125 704.573823 
z
" clip-path="url(#pee9075e8d4)" style="fill: #f08080; opacity: 0.7"/>
   </g>
   <g id="patch_46">
    <path d="M 655.074343 724.561206 
L 678.90627 724.561206 
L 678.90627 483.006364 
L 655.074343 483.006364 
z
" clip-path="url(#pee9075e8d4)" style="fill: #f08080; opacity: 0.7"/>
   </g>
   <g id="patch_47">
    <path d="M 723.165562 724.561206 
L 746.997488 724.561206 
L 746.997488 462.043986 
L 723.165562 462.043986 
z
" clip-path="url(#pee9075e8d4)" style="fill: #f08080; opacity: 0.7"/>
   </g>
   <g id="patch_48">
    <path d="M 791.25678 724.561206 
L 815.088706 724.561206 
L 815.088706 724.561206 
L 791.25678 724.561206 
z
" clip-path="url(#pee9075e8d4)" style="fill: #f08080; opacity: 0.7"/>
   </g>
   <g id="patch_49">
    <path d="M 859.347998 724.561206 
L 883.179925 724.561206 
L 883.179925 724.561206 
L 859.347998 724.561206 
z
" clip-path="url(#pee9075e8d4)" style="fill: #f08080; opacity: 0.7"/>
   </g>
   <g id="patch_50">
    <path d="M 927.439217 724.561206 
L 951.271143 724.561206 
L 951.271143 620.236814 
L 927.439217 620.236814 
z
" clip-path="url(#pee9075e8d4)" style="fill: #f08080; opacity: 0.7"/>
   </g>
   <g id="patch_51">
    <path d="M 995.530435 724.561206 
L 1019.362361 724.561206 
L 1019.362361 724.561206 
L 995.530435 724.561206 
z
" clip-path="url(#pee9075e8d4)" style="fill: #f08080; opacity: 0.7"/>
   </g>
   <g id="patch_52">
    <path d="M 1063.621653 724.561206 
L 1087.45358 724.561206 
L 1087.45358 679.711468 
L 1063.621653 679.711468 
z
" clip-path="url(#pee9075e8d4)" style="fill: #f08080; opacity: 0.7"/>
   </g>
   <g id="matplotlib.axis_3">
    <g id="xtick_16">
     <g id="line2d_23">
      <g>
       <use xlink:href="#m49b78eb8b6" x="110.344597" y="724.561206" style="stroke: #000000; stroke-width: 0.8"/>
      </g>
     </g>
     <g id="text_24">
      <!-- FSR_scaled -->
      <g transform="translate(69.087126 776.524359) rotate(-45) scale(0.1 -0.1)">
       <use xlink:href="#DejaVuSans-46"/>
       <use xlink:href="#DejaVuSans-53" transform="translate(55.769531 0)"/>
       <use xlink:href="#DejaVuSans-52" transform="translate(119.246094 0)"/>
       <use xlink:href="#DejaVuSans-5f" transform="translate(188.728516 0)"/>
       <use xlink:href="#DejaVuSans-73" transform="translate(238.728516 0)"/>
       <use xlink:href="#DejaVuSans-63" transform="translate(290.828125 0)"/>
       <use xlink:href="#DejaVuSans-61" transform="translate(345.808594 0)"/>
       <use xlink:href="#DejaVuSans-6c" transform="translate(407.087891 0)"/>
       <use xlink:href="#DejaVuSans-65" transform="translate(434.871094 0)"/>
       <use xlink:href="#DejaVuSans-64" transform="translate(496.394531 0)"/>
      </g>
     </g>
    </g>
    <g id="xtick_17">
     <g id="line2d_24">
      <g>
       <use xlink:href="#m49b78eb8b6" x="178.435815" y="724.561206" style="stroke: #000000; stroke-width: 0.8"/>
      </g>
     </g>
     <g id="text_25">
      <!-- music_positive -->
      <g transform="translate(124.591843 789.110859) rotate(-45) scale(0.1 -0.1)">
       <use xlink:href="#DejaVuSans-6d"/>
       <use xlink:href="#DejaVuSans-75" transform="translate(97.412109 0)"/>
       <use xlink:href="#DejaVuSans-73" transform="translate(160.791016 0)"/>
       <use xlink:href="#DejaVuSans-69" transform="translate(212.890625 0)"/>
       <use xlink:href="#DejaVuSans-63" transform="translate(240.673828 0)"/>
       <use xlink:href="#DejaVuSans-5f" transform="translate(295.654297 0)"/>
       <use xlink:href="#DejaVuSans-70" transform="translate(345.654297 0)"/>
       <use xlink:href="#DejaVuSans-6f" transform="translate(409.130859 0)"/>
       <use xlink:href="#DejaVuSans-73" transform="translate(470.3125 0)"/>
       <use xlink:href="#DejaVuSans-69" transform="translate(522.412109 0)"/>
       <use xlink:href="#DejaVuSans-74" transform="translate(550.195312 0)"/>
       <use xlink:href="#DejaVuSans-69" transform="translate(589.404297 0)"/>
       <use xlink:href="#DejaVuSans-76" transform="translate(617.1875 0)"/>
       <use xlink:href="#DejaVuSans-65" transform="translate(676.367188 0)"/>
      </g>
     </g>
    </g>
    <g id="xtick_18">
     <g id="line2d_25">
      <g>
       <use xlink:href="#m49b78eb8b6" x="246.527033" y="724.561206" style="stroke: #000000; stroke-width: 0.8"/>
      </g>
     </g>
     <g id="text_26">
      <!-- word_count -->
      <g transform="translate(203.993456 777.800466) rotate(-45) scale(0.1 -0.1)">
       <use xlink:href="#DejaVuSans-77"/>
       <use xlink:href="#DejaVuSans-6f" transform="translate(81.787109 0)"/>
       <use xlink:href="#DejaVuSans-72" transform="translate(142.96875 0)"/>
       <use xlink:href="#DejaVuSans-64" transform="translate(182.332031 0)"/>
       <use xlink:href="#DejaVuSans-5f" transform="translate(245.808594 0)"/>
       <use xlink:href="#DejaVuSans-63" transform="translate(295.808594 0)"/>
       <use xlink:href="#DejaVuSans-6f" transform="translate(350.789062 0)"/>
       <use xlink:href="#DejaVuSans-75" transform="translate(411.970703 0)"/>
       <use xlink:href="#DejaVuSans-6e" transform="translate(475.349609 0)"/>
       <use xlink:href="#DejaVuSans-74" transform="translate(538.728516 0)"/>
      </g>
     </g>
    </g>
    <g id="xtick_19">
     <g id="line2d_26">
      <g>
       <use xlink:href="#m49b78eb8b6" x="314.618252" y="724.561206" style="stroke: #000000; stroke-width: 0.8"/>
      </g>
     </g>
     <g id="text_27">
      <!-- char_count -->
      <g transform="translate(273.85686 776.028279) rotate(-45) scale(0.1 -0.1)">
       <use xlink:href="#DejaVuSans-63"/>
       <use xlink:href="#DejaVuSans-68" transform="translate(54.980469 0)"/>
       <use xlink:href="#DejaVuSans-61" transform="translate(118.359375 0)"/>
       <use xlink:href="#DejaVuSans-72" transform="translate(179.638672 0)"/>
       <use xlink:href="#DejaVuSans-5f" transform="translate(220.751953 0)"/>
       <use xlink:href="#DejaVuSans-63" transform="translate(270.751953 0)"/>
       <use xlink:href="#DejaVuSans-6f" transform="translate(325.732422 0)"/>
       <use xlink:href="#DejaVuSans-75" transform="translate(386.914062 0)"/>
       <use xlink:href="#DejaVuSans-6e" transform="translate(450.292969 0)"/>
       <use xlink:href="#DejaVuSans-74" transform="translate(513.671875 0)"/>
      </g>
     </g>
    </g>
    <g id="xtick_20">
     <g id="line2d_27">
      <g>
       <use xlink:href="#m49b78eb8b6" x="382.70947" y="724.561206" style="stroke: #000000; stroke-width: 0.8"/>
      </g>
     </g>
     <g id="text_28">
      <!-- avg_PE_scaled -->
      <g transform="translate(329.522887 788.453471) rotate(-45) scale(0.1 -0.1)">
       <use xlink:href="#DejaVuSans-61"/>
       <use xlink:href="#DejaVuSans-76" transform="translate(61.279297 0)"/>
       <use xlink:href="#DejaVuSans-67" transform="translate(120.458984 0)"/>
       <use xlink:href="#DejaVuSans-5f" transform="translate(183.935547 0)"/>
       <use xlink:href="#DejaVuSans-50" transform="translate(233.935547 0)"/>
       <use xlink:href="#DejaVuSans-45" transform="translate(294.238281 0)"/>
       <use xlink:href="#DejaVuSans-5f" transform="translate(357.421875 0)"/>
       <use xlink:href="#DejaVuSans-73" transform="translate(407.421875 0)"/>
       <use xlink:href="#DejaVuSans-63" transform="translate(459.521484 0)"/>
       <use xlink:href="#DejaVuSans-61" transform="translate(514.501953 0)"/>
       <use xlink:href="#DejaVuSans-6c" transform="translate(575.78125 0)"/>
       <use xlink:href="#DejaVuSans-65" transform="translate(603.564453 0)"/>
       <use xlink:href="#DejaVuSans-64" transform="translate(665.087891 0)"/>
      </g>
     </g>
    </g>
    <g id="xtick_21">
     <g id="line2d_28">
      <g>
       <use xlink:href="#m49b78eb8b6" x="450.800688" y="724.561206" style="stroke: #000000; stroke-width: 0.8"/>
      </g>
     </g>
     <g id="text_29">
      <!-- positive_word_count -->
      <g transform="translate(376.995313 809.072263) rotate(-45) scale(0.1 -0.1)">
       <use xlink:href="#DejaVuSans-70"/>
       <use xlink:href="#DejaVuSans-6f" transform="translate(63.476562 0)"/>
       <use xlink:href="#DejaVuSans-73" transform="translate(124.658203 0)"/>
       <use xlink:href="#DejaVuSans-69" transform="translate(176.757812 0)"/>
       <use xlink:href="#DejaVuSans-74" transform="translate(204.541016 0)"/>
       <use xlink:href="#DejaVuSans-69" transform="translate(243.75 0)"/>
       <use xlink:href="#DejaVuSans-76" transform="translate(271.533203 0)"/>
       <use xlink:href="#DejaVuSans-65" transform="translate(330.712891 0)"/>
       <use xlink:href="#DejaVuSans-5f" transform="translate(392.236328 0)"/>
       <use xlink:href="#DejaVuSans-77" transform="translate(442.236328 0)"/>
       <use xlink:href="#DejaVuSans-6f" transform="translate(524.023438 0)"/>
       <use xlink:href="#DejaVuSans-72" transform="translate(585.205078 0)"/>
       <use xlink:href="#DejaVuSans-64" transform="translate(624.568359 0)"/>
       <use xlink:href="#DejaVuSans-5f" transform="translate(688.044922 0)"/>
       <use xlink:href="#DejaVuSans-63" transform="translate(738.044922 0)"/>
       <use xlink:href="#DejaVuSans-6f" transform="translate(793.025391 0)"/>
       <use xlink:href="#DejaVuSans-75" transform="translate(854.207031 0)"/>
       <use xlink:href="#DejaVuSans-6e" transform="translate(917.585938 0)"/>
       <use xlink:href="#DejaVuSans-74" transform="translate(980.964844 0)"/>
      </g>
     </g>
    </g>
    <g id="xtick_22">
     <g id="line2d_29">
      <g>
       <use xlink:href="#m49b78eb8b6" x="518.891907" y="724.561206" style="stroke: #000000; stroke-width: 0.8"/>
      </g>
     </g>
     <g id="text_30">
      <!-- sports_positive -->
      <g transform="translate(464.091131 790.067663) rotate(-45) scale(0.1 -0.1)">
       <use xlink:href="#DejaVuSans-73"/>
       <use xlink:href="#DejaVuSans-70" transform="translate(52.099609 0)"/>
       <use xlink:href="#DejaVuSans-6f" transform="translate(115.576172 0)"/>
       <use xlink:href="#DejaVuSans-72" transform="translate(176.757812 0)"/>
       <use xlink:href="#DejaVuSans-74" transform="translate(217.871094 0)"/>
       <use xlink:href="#DejaVuSans-73" transform="translate(257.080078 0)"/>
       <use xlink:href="#DejaVuSans-5f" transform="translate(309.179688 0)"/>
       <use xlink:href="#DejaVuSans-70" transform="translate(359.179688 0)"/>
       <use xlink:href="#DejaVuSans-6f" transform="translate(422.65625 0)"/>
       <use xlink:href="#DejaVuSans-73" transform="translate(483.837891 0)"/>
       <use xlink:href="#DejaVuSans-69" transform="translate(535.9375 0)"/>
       <use xlink:href="#DejaVuSans-74" transform="translate(563.720703 0)"/>
       <use xlink:href="#DejaVuSans-69" transform="translate(602.929688 0)"/>
       <use xlink:href="#DejaVuSans-76" transform="translate(630.712891 0)"/>
       <use xlink:href="#DejaVuSans-65" transform="translate(689.892578 0)"/>
      </g>
     </g>
    </g>
    <g id="xtick_23">
     <g id="line2d_30">
      <g>
       <use xlink:href="#m49b78eb8b6" x="586.983125" y="724.561206" style="stroke: #000000; stroke-width: 0.8"/>
      </g>
     </g>
     <g id="text_31">
      <!-- personality_inference_negative -->
      <g transform="translate(474.755335 847.494678) rotate(-45) scale(0.1 -0.1)">
       <use xlink:href="#DejaVuSans-70"/>
       <use xlink:href="#DejaVuSans-65" transform="translate(63.476562 0)"/>
       <use xlink:href="#DejaVuSans-72" transform="translate(125 0)"/>
       <use xlink:href="#DejaVuSans-73" transform="translate(166.113281 0)"/>
       <use xlink:href="#DejaVuSans-6f" transform="translate(218.212891 0)"/>
       <use xlink:href="#DejaVuSans-6e" transform="translate(279.394531 0)"/>
       <use xlink:href="#DejaVuSans-61" transform="translate(342.773438 0)"/>
       <use xlink:href="#DejaVuSans-6c" transform="translate(404.052734 0)"/>
       <use xlink:href="#DejaVuSans-69" transform="translate(431.835938 0)"/>
       <use xlink:href="#DejaVuSans-74" transform="translate(459.619141 0)"/>
       <use xlink:href="#DejaVuSans-79" transform="translate(498.828125 0)"/>
       <use xlink:href="#DejaVuSans-5f" transform="translate(558.007812 0)"/>
       <use xlink:href="#DejaVuSans-69" transform="translate(608.007812 0)"/>
       <use xlink:href="#DejaVuSans-6e" transform="translate(635.791016 0)"/>
       <use xlink:href="#DejaVuSans-66" transform="translate(699.169922 0)"/>
       <use xlink:href="#DejaVuSans-65" transform="translate(734.375 0)"/>
       <use xlink:href="#DejaVuSans-72" transform="translate(795.898438 0)"/>
       <use xlink:href="#DejaVuSans-65" transform="translate(834.761719 0)"/>
       <use xlink:href="#DejaVuSans-6e" transform="translate(896.285156 0)"/>
       <use xlink:href="#DejaVuSans-63" transform="translate(959.664062 0)"/>
       <use xlink:href="#DejaVuSans-65" transform="translate(1014.644531 0)"/>
       <use xlink:href="#DejaVuSans-5f" transform="translate(1076.167969 0)"/>
       <use xlink:href="#DejaVuSans-6e" transform="translate(1126.167969 0)"/>
       <use xlink:href="#DejaVuSans-65" transform="translate(1189.546875 0)"/>
       <use xlink:href="#DejaVuSans-67" transform="translate(1251.070312 0)"/>
       <use xlink:href="#DejaVuSans-61" transform="translate(1314.546875 0)"/>
       <use xlink:href="#DejaVuSans-74" transform="translate(1375.826172 0)"/>
       <use xlink:href="#DejaVuSans-69" transform="translate(1415.035156 0)"/>
       <use xlink:href="#DejaVuSans-76" transform="translate(1442.818359 0)"/>
       <use xlink:href="#DejaVuSans-65" transform="translate(1501.998047 0)"/>
      </g>
     </g>
    </g>
    <g id="xtick_24">
     <g id="line2d_31">
      <g>
       <use xlink:href="#m49b78eb8b6" x="655.074343" y="724.561206" style="stroke: #000000; stroke-width: 0.8"/>
      </g>
     </g>
     <g id="text_32">
      <!-- music_neutral -->
      <g transform="translate(603.676519 786.664712) rotate(-45) scale(0.1 -0.1)">
       <use xlink:href="#DejaVuSans-6d"/>
       <use xlink:href="#DejaVuSans-75" transform="translate(97.412109 0)"/>
       <use xlink:href="#DejaVuSans-73" transform="translate(160.791016 0)"/>
       <use xlink:href="#DejaVuSans-69" transform="translate(212.890625 0)"/>
       <use xlink:href="#DejaVuSans-63" transform="translate(240.673828 0)"/>
       <use xlink:href="#DejaVuSans-5f" transform="translate(295.654297 0)"/>
       <use xlink:href="#DejaVuSans-6e" transform="translate(345.654297 0)"/>
       <use xlink:href="#DejaVuSans-65" transform="translate(409.033203 0)"/>
       <use xlink:href="#DejaVuSans-75" transform="translate(470.556641 0)"/>
       <use xlink:href="#DejaVuSans-74" transform="translate(533.935547 0)"/>
       <use xlink:href="#DejaVuSans-72" transform="translate(573.144531 0)"/>
       <use xlink:href="#DejaVuSans-61" transform="translate(614.257812 0)"/>
       <use xlink:href="#DejaVuSans-6c" transform="translate(675.537109 0)"/>
      </g>
     </g>
    </g>
    <g id="xtick_25">
     <g id="line2d_32">
      <g>
       <use xlink:href="#m49b78eb8b6" x="723.165562" y="724.561206" style="stroke: #000000; stroke-width: 0.8"/>
      </g>
     </g>
     <g id="text_33">
      <!-- arts_and_crafts_neutral -->
      <g transform="translate(638.653043 819.779406) rotate(-45) scale(0.1 -0.1)">
       <use xlink:href="#DejaVuSans-61"/>
       <use xlink:href="#DejaVuSans-72" transform="translate(61.279297 0)"/>
       <use xlink:href="#DejaVuSans-74" transform="translate(102.392578 0)"/>
       <use xlink:href="#DejaVuSans-73" transform="translate(141.601562 0)"/>
       <use xlink:href="#DejaVuSans-5f" transform="translate(193.701172 0)"/>
       <use xlink:href="#DejaVuSans-61" transform="translate(243.701172 0)"/>
       <use xlink:href="#DejaVuSans-6e" transform="translate(304.980469 0)"/>
       <use xlink:href="#DejaVuSans-64" transform="translate(368.359375 0)"/>
       <use xlink:href="#DejaVuSans-5f" transform="translate(431.835938 0)"/>
       <use xlink:href="#DejaVuSans-63" transform="translate(481.835938 0)"/>
       <use xlink:href="#DejaVuSans-72" transform="translate(536.816406 0)"/>
       <use xlink:href="#DejaVuSans-61" transform="translate(577.929688 0)"/>
       <use xlink:href="#DejaVuSans-66" transform="translate(639.208984 0)"/>
       <use xlink:href="#DejaVuSans-74" transform="translate(672.664062 0)"/>
       <use xlink:href="#DejaVuSans-73" transform="translate(711.873047 0)"/>
       <use xlink:href="#DejaVuSans-5f" transform="translate(763.972656 0)"/>
       <use xlink:href="#DejaVuSans-6e" transform="translate(813.972656 0)"/>
       <use xlink:href="#DejaVuSans-65" transform="translate(877.351562 0)"/>
       <use xlink:href="#DejaVuSans-75" transform="translate(938.875 0)"/>
       <use xlink:href="#DejaVuSans-74" transform="translate(1002.253906 0)"/>
       <use xlink:href="#DejaVuSans-72" transform="translate(1041.462891 0)"/>
       <use xlink:href="#DejaVuSans-61" transform="translate(1082.576172 0)"/>
       <use xlink:href="#DejaVuSans-6c" transform="translate(1143.855469 0)"/>
      </g>
     </g>
    </g>
    <g id="xtick_26">
     <g id="line2d_33">
      <g>
       <use xlink:href="#m49b78eb8b6" x="791.25678" y="724.561206" style="stroke: #000000; stroke-width: 0.8"/>
      </g>
     </g>
     <g id="text_34">
      <!-- shortness_score -->
      <g transform="translate(732.687346 793.836322) rotate(-45) scale(0.1 -0.1)">
       <use xlink:href="#DejaVuSans-73"/>
       <use xlink:href="#DejaVuSans-68" transform="translate(52.099609 0)"/>
       <use xlink:href="#DejaVuSans-6f" transform="translate(115.478516 0)"/>
       <use xlink:href="#DejaVuSans-72" transform="translate(176.660156 0)"/>
       <use xlink:href="#DejaVuSans-74" transform="translate(217.773438 0)"/>
       <use xlink:href="#DejaVuSans-6e" transform="translate(256.982422 0)"/>
       <use xlink:href="#DejaVuSans-65" transform="translate(320.361328 0)"/>
       <use xlink:href="#DejaVuSans-73" transform="translate(381.884766 0)"/>
       <use xlink:href="#DejaVuSans-73" transform="translate(433.984375 0)"/>
       <use xlink:href="#DejaVuSans-5f" transform="translate(486.083984 0)"/>
       <use xlink:href="#DejaVuSans-73" transform="translate(536.083984 0)"/>
       <use xlink:href="#DejaVuSans-63" transform="translate(588.183594 0)"/>
       <use xlink:href="#DejaVuSans-6f" transform="translate(643.164062 0)"/>
       <use xlink:href="#DejaVuSans-72" transform="translate(704.345703 0)"/>
       <use xlink:href="#DejaVuSans-65" transform="translate(743.208984 0)"/>
      </g>
     </g>
    </g>
    <g id="xtick_27">
     <g id="line2d_34">
      <g>
       <use xlink:href="#m49b78eb8b6" x="859.347998" y="724.561206" style="stroke: #000000; stroke-width: 0.8"/>
      </g>
     </g>
     <g id="text_35">
      <!-- flesch_reading_ease -->
      <g transform="translate(786.177914 808.436972) rotate(-45) scale(0.1 -0.1)">
       <use xlink:href="#DejaVuSans-66"/>
       <use xlink:href="#DejaVuSans-6c" transform="translate(35.205078 0)"/>
       <use xlink:href="#DejaVuSans-65" transform="translate(62.988281 0)"/>
       <use xlink:href="#DejaVuSans-73" transform="translate(124.511719 0)"/>
       <use xlink:href="#DejaVuSans-63" transform="translate(176.611328 0)"/>
       <use xlink:href="#DejaVuSans-68" transform="translate(231.591797 0)"/>
       <use xlink:href="#DejaVuSans-5f" transform="translate(294.970703 0)"/>
       <use xlink:href="#DejaVuSans-72" transform="translate(344.970703 0)"/>
       <use xlink:href="#DejaVuSans-65" transform="translate(383.833984 0)"/>
       <use xlink:href="#DejaVuSans-61" transform="translate(445.357422 0)"/>
       <use xlink:href="#DejaVuSans-64" transform="translate(506.636719 0)"/>
       <use xlink:href="#DejaVuSans-69" transform="translate(570.113281 0)"/>
       <use xlink:href="#DejaVuSans-6e" transform="translate(597.896484 0)"/>
       <use xlink:href="#DejaVuSans-67" transform="translate(661.275391 0)"/>
       <use xlink:href="#DejaVuSans-5f" transform="translate(724.751953 0)"/>
       <use xlink:href="#DejaVuSans-65" transform="translate(774.751953 0)"/>
       <use xlink:href="#DejaVuSans-61" transform="translate(836.275391 0)"/>
       <use xlink:href="#DejaVuSans-73" transform="translate(897.554688 0)"/>
       <use xlink:href="#DejaVuSans-65" transform="translate(949.654297 0)"/>
      </g>
     </g>
    </g>
    <g id="xtick_28">
     <g id="line2d_35">
      <g>
       <use xlink:href="#m49b78eb8b6" x="927.439217" y="724.561206" style="stroke: #000000; stroke-width: 0.8"/>
      </g>
     </g>
     <g id="text_36">
      <!-- food_positive -->
      <g transform="translate(878.868715 783.83739) rotate(-45) scale(0.1 -0.1)">
       <use xlink:href="#DejaVuSans-66"/>
       <use xlink:href="#DejaVuSans-6f" transform="translate(35.205078 0)"/>
       <use xlink:href="#DejaVuSans-6f" transform="translate(96.386719 0)"/>
       <use xlink:href="#DejaVuSans-64" transform="translate(157.568359 0)"/>
       <use xlink:href="#DejaVuSans-5f" transform="translate(221.044922 0)"/>
       <use xlink:href="#DejaVuSans-70" transform="translate(271.044922 0)"/>
       <use xlink:href="#DejaVuSans-6f" transform="translate(334.521484 0)"/>
       <use xlink:href="#DejaVuSans-73" transform="translate(395.703125 0)"/>
       <use xlink:href="#DejaVuSans-69" transform="translate(447.802734 0)"/>
       <use xlink:href="#DejaVuSans-74" transform="translate(475.585938 0)"/>
       <use xlink:href="#DejaVuSans-69" transform="translate(514.794922 0)"/>
       <use xlink:href="#DejaVuSans-76" transform="translate(542.578125 0)"/>
       <use xlink:href="#DejaVuSans-65" transform="translate(601.757812 0)"/>
      </g>
     </g>
    </g>
    <g id="xtick_29">
     <g id="line2d_36">
      <g>
       <use xlink:href="#m49b78eb8b6" x="995.530435" y="724.561206" style="stroke: #000000; stroke-width: 0.8"/>
      </g>
     </g>
     <g id="text_37">
      <!-- sentiment_subjectivity -->
      <g transform="translate(913.882804 816.914519) rotate(-45) scale(0.1 -0.1)">
       <use xlink:href="#DejaVuSans-73"/>
       <use xlink:href="#DejaVuSans-65" transform="translate(52.099609 0)"/>
       <use xlink:href="#DejaVuSans-6e" transform="translate(113.623047 0)"/>
       <use xlink:href="#DejaVuSans-74" transform="translate(177.001953 0)"/>
       <use xlink:href="#DejaVuSans-69" transform="translate(216.210938 0)"/>
       <use xlink:href="#DejaVuSans-6d" transform="translate(243.994141 0)"/>
       <use xlink:href="#DejaVuSans-65" transform="translate(341.40625 0)"/>
       <use xlink:href="#DejaVuSans-6e" transform="translate(402.929688 0)"/>
       <use xlink:href="#DejaVuSans-74" transform="translate(466.308594 0)"/>
       <use xlink:href="#DejaVuSans-5f" transform="translate(505.517578 0)"/>
       <use xlink:href="#DejaVuSans-73" transform="translate(555.517578 0)"/>
       <use xlink:href="#DejaVuSans-75" transform="translate(607.617188 0)"/>
       <use xlink:href="#DejaVuSans-62" transform="translate(670.996094 0)"/>
       <use xlink:href="#DejaVuSans-6a" transform="translate(734.472656 0)"/>
       <use xlink:href="#DejaVuSans-65" transform="translate(762.255859 0)"/>
       <use xlink:href="#DejaVuSans-63" transform="translate(823.779297 0)"/>
       <use xlink:href="#DejaVuSans-74" transform="translate(878.759766 0)"/>
       <use xlink:href="#DejaVuSans-69" transform="translate(917.96875 0)"/>
       <use xlink:href="#DejaVuSans-76" transform="translate(945.751953 0)"/>
       <use xlink:href="#DejaVuSans-69" transform="translate(1004.931641 0)"/>
       <use xlink:href="#DejaVuSans-74" transform="translate(1032.714844 0)"/>
       <use xlink:href="#DejaVuSans-79" transform="translate(1071.923828 0)"/>
      </g>
     </g>
    </g>
    <g id="xtick_30">
     <g id="line2d_37">
      <g>
       <use xlink:href="#m49b78eb8b6" x="1063.621653" y="724.561206" style="stroke: #000000; stroke-width: 0.8"/>
      </g>
     </g>
     <g id="text_38">
      <!-- arts_and_crafts_mentioned -->
      <g transform="translate(966.295034 832.593507) rotate(-45) scale(0.1 -0.1)">
       <use xlink:href="#DejaVuSans-61"/>
       <use xlink:href="#DejaVuSans-72" transform="translate(61.279297 0)"/>
       <use xlink:href="#DejaVuSans-74" transform="translate(102.392578 0)"/>
       <use xlink:href="#DejaVuSans-73" transform="translate(141.601562 0)"/>
       <use xlink:href="#DejaVuSans-5f" transform="translate(193.701172 0)"/>
       <use xlink:href="#DejaVuSans-61" transform="translate(243.701172 0)"/>
       <use xlink:href="#DejaVuSans-6e" transform="translate(304.980469 0)"/>
       <use xlink:href="#DejaVuSans-64" transform="translate(368.359375 0)"/>
       <use xlink:href="#DejaVuSans-5f" transform="translate(431.835938 0)"/>
       <use xlink:href="#DejaVuSans-63" transform="translate(481.835938 0)"/>
       <use xlink:href="#DejaVuSans-72" transform="translate(536.816406 0)"/>
       <use xlink:href="#DejaVuSans-61" transform="translate(577.929688 0)"/>
       <use xlink:href="#DejaVuSans-66" transform="translate(639.208984 0)"/>
       <use xlink:href="#DejaVuSans-74" transform="translate(672.664062 0)"/>
       <use xlink:href="#DejaVuSans-73" transform="translate(711.873047 0)"/>
       <use xlink:href="#DejaVuSans-5f" transform="translate(763.972656 0)"/>
       <use xlink:href="#DejaVuSans-6d" transform="translate(813.972656 0)"/>
       <use xlink:href="#DejaVuSans-65" transform="translate(911.384766 0)"/>
       <use xlink:href="#DejaVuSans-6e" transform="translate(972.908203 0)"/>
       <use xlink:href="#DejaVuSans-74" transform="translate(1036.287109 0)"/>
       <use xlink:href="#DejaVuSans-69" transform="translate(1075.496094 0)"/>
       <use xlink:href="#DejaVuSans-6f" transform="translate(1103.279297 0)"/>
       <use xlink:href="#DejaVuSans-6e" transform="translate(1164.460938 0)"/>
       <use xlink:href="#DejaVuSans-65" transform="translate(1227.839844 0)"/>
       <use xlink:href="#DejaVuSans-64" transform="translate(1289.363281 0)"/>
      </g>
     </g>
    </g>
   </g>
   <g id="matplotlib.axis_4">
    <g id="ytick_8">
     <g id="line2d_38">
      <g>
       <use xlink:href="#m14c3f271f1" x="36.465625" y="724.561206" style="stroke: #000000; stroke-width: 0.8"/>
      </g>
     </g>
     <g id="text_39">
      <!-- 0.0 -->
      <g transform="translate(13.5625 728.360425) scale(0.1 -0.1)">
       <use xlink:href="#DejaVuSans-30"/>
       <use xlink:href="#DejaVuSans-2e" transform="translate(63.623047 0)"/>
       <use xlink:href="#DejaVuSans-30" transform="translate(95.410156 0)"/>
      </g>
     </g>
    </g>
    <g id="ytick_9">
     <g id="line2d_39">
      <g>
       <use xlink:href="#m14c3f271f1" x="36.465625" y="664.062809" style="stroke: #000000; stroke-width: 0.8"/>
      </g>
     </g>
     <g id="text_40">
      <!-- 0.2 -->
      <g transform="translate(13.5625 667.862028) scale(0.1 -0.1)">
       <use xlink:href="#DejaVuSans-30"/>
       <use xlink:href="#DejaVuSans-2e" transform="translate(63.623047 0)"/>
       <use xlink:href="#DejaVuSans-32" transform="translate(95.410156 0)"/>
      </g>
     </g>
    </g>
    <g id="ytick_10">
     <g id="line2d_40">
      <g>
       <use xlink:href="#m14c3f271f1" x="36.465625" y="603.564411" style="stroke: #000000; stroke-width: 0.8"/>
      </g>
     </g>
     <g id="text_41">
      <!-- 0.4 -->
      <g transform="translate(13.5625 607.36363) scale(0.1 -0.1)">
       <defs>
        <path id="DejaVuSans-34" d="M 2419 4116 
L 825 1625 
L 2419 1625 
L 2419 4116 
z
M 2253 4666 
L 3047 4666 
L 3047 1625 
L 3713 1625 
L 3713 1100 
L 3047 1100 
L 3047 0 
L 2419 0 
L 2419 1100 
L 313 1100 
L 313 1709 
L 2253 4666 
z
" transform="scale(0.015625)"/>
       </defs>
       <use xlink:href="#DejaVuSans-30"/>
       <use xlink:href="#DejaVuSans-2e" transform="translate(63.623047 0)"/>
       <use xlink:href="#DejaVuSans-34" transform="translate(95.410156 0)"/>
      </g>
     </g>
    </g>
    <g id="ytick_11">
     <g id="line2d_41">
      <g>
       <use xlink:href="#m14c3f271f1" x="36.465625" y="543.066014" style="stroke: #000000; stroke-width: 0.8"/>
      </g>
     </g>
     <g id="text_42">
      <!-- 0.6 -->
      <g transform="translate(13.5625 546.865233) scale(0.1 -0.1)">
       <defs>
        <path id="DejaVuSans-36" d="M 2113 2584 
Q 1688 2584 1439 2293 
Q 1191 2003 1191 1497 
Q 1191 994 1439 701 
Q 1688 409 2113 409 
Q 2538 409 2786 701 
Q 3034 994 3034 1497 
Q 3034 2003 2786 2293 
Q 2538 2584 2113 2584 
z
M 3366 4563 
L 3366 3988 
Q 3128 4100 2886 4159 
Q 2644 4219 2406 4219 
Q 1781 4219 1451 3797 
Q 1122 3375 1075 2522 
Q 1259 2794 1537 2939 
Q 1816 3084 2150 3084 
Q 2853 3084 3261 2657 
Q 3669 2231 3669 1497 
Q 3669 778 3244 343 
Q 2819 -91 2113 -91 
Q 1303 -91 875 529 
Q 447 1150 447 2328 
Q 447 3434 972 4092 
Q 1497 4750 2381 4750 
Q 2619 4750 2861 4703 
Q 3103 4656 3366 4563 
z
" transform="scale(0.015625)"/>
       </defs>
       <use xlink:href="#DejaVuSans-30"/>
       <use xlink:href="#DejaVuSans-2e" transform="translate(63.623047 0)"/>
       <use xlink:href="#DejaVuSans-36" transform="translate(95.410156 0)"/>
      </g>
     </g>
    </g>
    <g id="ytick_12">
     <g id="line2d_42">
      <g>
       <use xlink:href="#m14c3f271f1" x="36.465625" y="482.567616" style="stroke: #000000; stroke-width: 0.8"/>
      </g>
     </g>
     <g id="text_43">
      <!-- 0.8 -->
      <g transform="translate(13.5625 486.366835) scale(0.1 -0.1)">
       <defs>
        <path id="DejaVuSans-38" d="M 2034 2216 
Q 1584 2216 1326 1975 
Q 1069 1734 1069 1313 
Q 1069 891 1326 650 
Q 1584 409 2034 409 
Q 2484 409 2743 651 
Q 3003 894 3003 1313 
Q 3003 1734 2745 1975 
Q 2488 2216 2034 2216 
z
M 1403 2484 
Q 997 2584 770 2862 
Q 544 3141 544 3541 
Q 544 4100 942 4425 
Q 1341 4750 2034 4750 
Q 2731 4750 3128 4425 
Q 3525 4100 3525 3541 
Q 3525 3141 3298 2862 
Q 3072 2584 2669 2484 
Q 3125 2378 3379 2068 
Q 3634 1759 3634 1313 
Q 3634 634 3220 271 
Q 2806 -91 2034 -91 
Q 1263 -91 848 271 
Q 434 634 434 1313 
Q 434 1759 690 2068 
Q 947 2378 1403 2484 
z
M 1172 3481 
Q 1172 3119 1398 2916 
Q 1625 2713 2034 2713 
Q 2441 2713 2670 2916 
Q 2900 3119 2900 3481 
Q 2900 3844 2670 4047 
Q 2441 4250 2034 4250 
Q 1625 4250 1398 4047 
Q 1172 3844 1172 3481 
z
" transform="scale(0.015625)"/>
       </defs>
       <use xlink:href="#DejaVuSans-30"/>
       <use xlink:href="#DejaVuSans-2e" transform="translate(63.623047 0)"/>
       <use xlink:href="#DejaVuSans-38" transform="translate(95.410156 0)"/>
      </g>
     </g>
    </g>
   </g>
   <g id="patch_53">
    <path d="M 36.465625 724.561206 
L 36.465625 448.918125 
" style="fill: none; stroke: #000000; stroke-width: 0.8; stroke-linejoin: miter; stroke-linecap: square"/>
   </g>
   <g id="patch_54">
    <path d="M 1137.500625 724.561206 
L 1137.500625 448.918125 
" style="fill: none; stroke: #000000; stroke-width: 0.8; stroke-linejoin: miter; stroke-linecap: square"/>
   </g>
   <g id="patch_55">
    <path d="M 36.465625 724.561206 
L 1137.500625 724.561206 
" style="fill: none; stroke: #000000; stroke-width: 0.8; stroke-linejoin: miter; stroke-linecap: square"/>
   </g>
   <g id="patch_56">
    <path d="M 36.465625 448.918125 
L 1137.500625 448.918125 
" style="fill: none; stroke: #000000; stroke-width: 0.8; stroke-linejoin: miter; stroke-linecap: square"/>
   </g>
   <g id="text_44">
    <!-- Feature Values by Group (TD vs ASD) -->
    <g transform="translate(475.470312 442.918125) scale(0.12 -0.12)">
     <defs>
      <path id="DejaVuSans-47" d="M 3809 666 
L 3809 1919 
L 2778 1919 
L 2778 2438 
L 4434 2438 
L 4434 434 
Q 4069 175 3628 42 
Q 3188 -91 2688 -91 
Q 1594 -91 976 548 
Q 359 1188 359 2328 
Q 359 3472 976 4111 
Q 1594 4750 2688 4750 
Q 3144 4750 3555 4637 
Q 3966 4525 4313 4306 
L 4313 3634 
Q 3963 3931 3569 4081 
Q 3175 4231 2741 4231 
Q 1884 4231 1454 3753 
Q 1025 3275 1025 2328 
Q 1025 1384 1454 906 
Q 1884 428 2741 428 
Q 3075 428 3337 486 
Q 3600 544 3809 666 
z
" transform="scale(0.015625)"/>
      <path id="DejaVuSans-44" d="M 1259 4147 
L 1259 519 
L 2022 519 
Q 2988 519 3436 956 
Q 3884 1394 3884 2338 
Q 3884 3275 3436 3711 
Q 2988 4147 2022 4147 
L 1259 4147 
z
M 628 4666 
L 1925 4666 
Q 3281 4666 3915 4102 
Q 4550 3538 4550 2338 
Q 4550 1131 3912 565 
Q 3275 0 1925 0 
L 628 0 
L 628 4666 
z
" transform="scale(0.015625)"/>
      <path id="DejaVuSans-41" d="M 2188 4044 
L 1331 1722 
L 3047 1722 
L 2188 4044 
z
M 1831 4666 
L 2547 4666 
L 4325 0 
L 3669 0 
L 3244 1197 
L 1141 1197 
L 716 0 
L 50 0 
L 1831 4666 
z
" transform="scale(0.015625)"/>
     </defs>
     <use xlink:href="#DejaVuSans-46"/>
     <use xlink:href="#DejaVuSans-65" transform="translate(52.019531 0)"/>
     <use xlink:href="#DejaVuSans-61" transform="translate(113.542969 0)"/>
     <use xlink:href="#DejaVuSans-74" transform="translate(174.822266 0)"/>
     <use xlink:href="#DejaVuSans-75" transform="translate(214.03125 0)"/>
     <use xlink:href="#DejaVuSans-72" transform="translate(277.410156 0)"/>
     <use xlink:href="#DejaVuSans-65" transform="translate(316.273438 0)"/>
     <use xlink:href="#DejaVuSans-20" transform="translate(377.796875 0)"/>
     <use xlink:href="#DejaVuSans-56" transform="translate(409.583984 0)"/>
     <use xlink:href="#DejaVuSans-61" transform="translate(470.242188 0)"/>
     <use xlink:href="#DejaVuSans-6c" transform="translate(531.521484 0)"/>
     <use xlink:href="#DejaVuSans-75" transform="translate(559.304688 0)"/>
     <use xlink:href="#DejaVuSans-65" transform="translate(622.683594 0)"/>
     <use xlink:href="#DejaVuSans-73" transform="translate(684.207031 0)"/>
     <use xlink:href="#DejaVuSans-20" transform="translate(736.306641 0)"/>
     <use xlink:href="#DejaVuSans-62" transform="translate(768.09375 0)"/>
     <use xlink:href="#DejaVuSans-79" transform="translate(831.570312 0)"/>
     <use xlink:href="#DejaVuSans-20" transform="translate(890.75 0)"/>
     <use xlink:href="#DejaVuSans-47" transform="translate(922.537109 0)"/>
     <use xlink:href="#DejaVuSans-72" transform="translate(1000.027344 0)"/>
     <use xlink:href="#DejaVuSans-6f" transform="translate(1038.890625 0)"/>
     <use xlink:href="#DejaVuSans-75" transform="translate(1100.072266 0)"/>
     <use xlink:href="#DejaVuSans-70" transform="translate(1163.451172 0)"/>
     <use xlink:href="#DejaVuSans-20" transform="translate(1226.927734 0)"/>
     <use xlink:href="#DejaVuSans-28" transform="translate(1258.714844 0)"/>
     <use xlink:href="#DejaVuSans-54" transform="translate(1297.728516 0)"/>
     <use xlink:href="#DejaVuSans-44" transform="translate(1358.8125 0)"/>
     <use xlink:href="#DejaVuSans-20" transform="translate(1435.814453 0)"/>
     <use xlink:href="#DejaVuSans-76" transform="translate(1467.601562 0)"/>
     <use xlink:href="#DejaVuSans-73" transform="translate(1526.78125 0)"/>
     <use xlink:href="#DejaVuSans-20" transform="translate(1578.880859 0)"/>
     <use xlink:href="#DejaVuSans-41" transform="translate(1610.667969 0)"/>
     <use xlink:href="#DejaVuSans-53" transform="translate(1679.076172 0)"/>
     <use xlink:href="#DejaVuSans-44" transform="translate(1742.552734 0)"/>
     <use xlink:href="#DejaVuSans-29" transform="translate(1819.554688 0)"/>
    </g>
   </g>
   <g id="legend_1">
    <g id="patch_57">
     <path d="M 1077.611562 486.274375 
L 1130.500625 486.274375 
Q 1132.500625 486.274375 1132.500625 484.274375 
L 1132.500625 455.918125 
Q 1132.500625 453.918125 1130.500625 453.918125 
L 1077.611562 453.918125 
Q 1075.611562 453.918125 1075.611562 455.918125 
L 1075.611562 484.274375 
Q 1075.611562 486.274375 1077.611562 486.274375 
z
" style="fill: #ffffff; opacity: 0.8; stroke: #cccccc; stroke-linejoin: miter"/>
    </g>
    <g id="patch_58">
     <path d="M 1079.611562 465.516562 
L 1099.611562 465.516562 
L 1099.611562 458.516562 
L 1079.611562 458.516562 
z
" style="fill: #add8e6; opacity: 0.7"/>
    </g>
    <g id="text_45">
     <!-- TD -->
     <g transform="translate(1107.611562 465.516562) scale(0.1 -0.1)">
      <use xlink:href="#DejaVuSans-54"/>
      <use xlink:href="#DejaVuSans-44" transform="translate(61.083984 0)"/>
     </g>
    </g>
    <g id="patch_59">
     <path d="M 1079.611562 480.194687 
L 1099.611562 480.194687 
L 1099.611562 473.194687 
L 1079.611562 473.194687 
z
" style="fill: #f08080; opacity: 0.7"/>
    </g>
    <g id="text_46">
     <!-- ASD -->
     <g transform="translate(1107.611562 480.194687) scale(0.1 -0.1)">
      <use xlink:href="#DejaVuSans-41"/>
      <use xlink:href="#DejaVuSans-53" transform="translate(68.408203 0)"/>
      <use xlink:href="#DejaVuSans-44" transform="translate(131.884766 0)"/>
     </g>
    </g>
   </g>
  </g>
 </g>
 <defs>
  <clipPath id="p56b7a92bcd">
   <rect x="36.465625" y="22.318125" width="1101.035" height="275.643081"/>
  </clipPath>
  <clipPath id="pee9075e8d4">
   <rect x="36.465625" y="448.918125" width="1101.035" height="275.643081"/>
  </clipPath>
 </defs>
</svg>
